<?xml version="1.0" encoding="utf-8"?>
<!-- Generator: Adobe Illustrator 16.0.0, SVG Export Plug-In . SVG Version: 6.00 Build 0)  -->
<!DOCTYPE svg PUBLIC "-//W3C//DTD SVG 1.1//EN" "http://www.w3.org/Graphics/SVG/1.1/DTD/svg11.dtd">
<svg version="1.1" id="lotus_esprite" xmlns="http://www.w3.org/2000/svg"
  xmlns:xlink="http://www.w3.org/1999/xlink" x="0px"
  y="0px" width="838px" height="227.586px" viewBox="0 0 838 227.586"
  enable-background="new 0 0 838 227.586"
  xml:space="preserve">
<g id="car_parts">
	<g>
		<polygon fill="#404040" points="577.517,187.511 554.065,179.134 576.37,85.91 678.521,85.91 720.84,184.273 687.242,190.996
			"/>
		<path d="M677.862,86.91l41.571,96.625l-32.275,6.458l-109.453-3.477l-22.459-8.022l21.913-91.584H677.862 M679.179,84.91H575.581
			l-22.697,94.864l24.444,8.731l109.997,3.493l34.921-6.987L679.179,84.91L679.179,84.91z"/>
	</g>
	<g>
		<polygon fill="#404040" points="107.819,184.018 84.984,177.335 107.279,84.162 208.845,84.162 251.167,182.532 218.156,189.246
					"/>
		<path d="M208.186,85.162l41.576,96.635l-31.683,6.444l-110.093-5.216l-21.807-6.382l21.89-91.481H208.186 M209.503,83.162H106.49
			l-22.699,94.866l23.862,6.983l110.581,5.239l34.338-6.984L209.503,83.162L209.503,83.162z"/>
	</g>
	<linearGradient id="SVGID_1_" gradientUnits="userSpaceOnUse" x1="26.7544" y1="172.3892" x2="26.7544" y2="161.9126">
		<stop  offset="0" style="stop-color:#595959"/>
		<stop  offset="0.5025" style="stop-color:#FFFFFF"/>
		<stop  offset="1" style="stop-color:#1A1A1A"/>
	</linearGradient>
	<polygon fill="url(#SVGID_1_)" points="40.723,161.151 11.041,161.151 19.771,171.627 42.468,171.627 	"/>
	<path fill="#FFFFFF" stroke="#000000" stroke-width="2.5" stroke-miterlimit="10" d="M28.501,102.368
		c2.372,17.24,2.946,32.766,1.745,46.561c-1.1,13.804-1.1,22.145,0,25.026c1.201,2.865,10.977,5.454,29.101,7.567
		c18.678,2.486,29.028,2.201,31.428-0.583c2.2-2.966,3.924-13.603,5.238-32.011c0.988-18.396,11.623-33.635,32.01-45.979
		c19.866-11.807,39.703-14.394,59.365-7.565c19.441,6.972,31.803,17.322,37.248,30.845c4.906,14.079,8.068,24.142,9.312,30.266
		c1.058,6.526,1.918,13.712,2.328,21.533c0.74,8.281,3.042,12.592,6.985,13.388c4.107,0.354,36.884,0.645,98.358,0.583
		c61.577,0.062,114.479,0.062,158.887,0c44.147,0.062,65.423-3.103,63.438-9.314c-1.464-6.438,1.123-20.239,8.146-41.323
		c6.777-21.466,20.001-34.979,39.577-40.739c19.527-5.741,38.502-4.303,57.035,4.076c18.268,8.872,29.194,22.384,32.596,40.737
		c3.495,18.448,5.797,30.811,6.981,37.249c1.117,6.212,16.639,7.936,46.558,5.238c29.887-3.051,48.571-5.063,55.875-6.4
		c7.649-0.962,9.084-5.276,4.656-12.806c-4.771-7.419-3.907-11.731,2.329-12.805c6.414-1.229,10.15-4.966,11.055-11.057
		c1.398-6.561,1.108-11.445-0.582-15.133c-1.758-3.216-25.618-11.841-71.585-25.607C710.543,90.28,670.866,81.083,637.276,76.76
		c-33.111-4.881-52.37-9.192-57.618-13.387c-5.105-3.855-26.954-13.631-65.768-29.1c-38.242-15.583-59.802-23.919-64.604-25.027
		c-4.4-1.193-31.137-1.769-79.733-1.743c-49.159-0.026-84.235,0.838-105.342,2.325c-21.444,1.963-39.844,4.263-55.29,6.986
		c-15.607,3.026-31.419,7.052-47.725,12.22c-15.895,5.182-32.284,10.069-48.888,14.55c-16.748,4.722-30.548,9.032-41.322,12.807
		c-11.078,4.277-17.977,6.574-20.952,6.981c-2.774,0.746-5.937-0.407-9.312-3.49c-3.526-2.667-7.837-4.391-12.804-5.239
		c-5.385-0.301-6.822,1.999-4.656,6.983c2.434,5.364,3.584,19.455,3.492,42.487"/>
	<path stroke="#000000" stroke-width="2" stroke-miterlimit="10" d="M705.516,162.897h111.6l8.146-5.237l5.238-17.463
		c0,0-1.026-16.167-8.792-12.22c-8.968-0.812-37.771-2.256-37.771-2.256l-6.399,28.445h-73.765"/>
	<g>
		<path d="M42.785,154.039c-1.998,0-4.231-0.097-6.639-0.289c-9.168-0.339-15.998-2.266-19.793-5.575
			c-3.976-3.351-6.736-7.212-8.449-11.817c-1.647-4.354-1.843-8.754-0.567-12.73l0.019-0.06l0.012-0.062
			c0.779-4.158,4.913-6.18,12.636-6.18c0.298,0,0.602,0.003,0.91,0.01c1.771-0.036,3.422-0.054,4.994-0.054
			c5.554,0,10.642,0.218,14.714,0.631c4.053,0.607,8.209,6.026,11.973,15.666c4.812,12.424,3.771,16.68,2.051,18.063
			C53.276,152.734,50.102,154.039,42.785,154.039C42.785,154.039,42.786,154.039,42.785,154.039z"/>
		<path d="M25.908,118.282c5.497,0,10.531,0.215,14.562,0.62c2.6,0.415,6.639,3.373,11.192,15.036
			c5.017,12.953,3.321,16.15,2.365,16.919c-1.249,0.995-4.212,2.182-11.241,2.182c-1.972,0-4.179-0.096-6.56-0.286l-0.042-0.003
			l-0.042-0.002c-8.894-0.327-15.509-2.17-19.156-5.349c-3.828-3.226-6.492-6.951-8.147-11.401
			c-1.565-4.135-1.755-8.307-0.549-12.065l0.039-0.12l0.023-0.123c0.249-1.326,1.005-5.363,11.653-5.363
			c0.292,0,0.588,0.003,0.89,0.01h0.042h0.042C22.654,118.299,24.313,118.282,25.908,118.282 M25.908,116.282
			c-1.579,0-3.237,0.018-4.974,0.054c-0.315-0.007-0.626-0.01-0.931-0.01c-8.168,0-12.74,2.306-13.619,6.995
			c-1.391,4.334-1.102,8.936,0.583,13.385c1.768,4.751,4.64,8.777,8.729,12.223c3.963,3.455,10.862,5.468,20.371,5.818
			c2.461,0.196,4.7,0.292,6.718,0.292c6.216,0,10.346-0.911,12.488-2.618c2.912-2.34,2.337-8.662-1.746-19.205
			c-3.967-10.16-8.28-15.621-12.804-16.298C37.003,116.541,32.056,116.282,25.908,116.282L25.908,116.282z"/>
	</g>
	<g>
		<polygon points="38.231,153.914 38.231,144.692 95.013,144.692 95.013,154.894 		"/>
		<path d="M94.013,145.692v8.185l-54.782-0.946v-7.238H94.013 M96.013,143.692H37.231v11.204l58.782,1.016V143.692L96.013,143.692z"
			/>
	</g>
	<path fill="none" stroke="#000000" stroke-width="2" stroke-miterlimit="10" d="M29.962,107.605h90.644 M210.965,107.605
		l373.349,8.73 M687.708,118.234l136.389,9.743"/>
	<g>
		<polygon points="236.448,160.151 233.527,149.928 567.273,149.928 564.354,160.151 		"/>
		<path d="M565.947,150.928l-2.348,8.223H237.203l-2.35-8.223H565.947 M568.599,148.928H232.201l3.493,12.223h329.415
			L568.599,148.928L568.599,148.928z"/>
	</g>
	<g>
		<path d="M164.135,221.843c-16.624,0-32.302-6.56-44.146-18.47c-12.337-12.406-19.076-29.053-18.976-46.873
			c-0.093-16.458,6.187-31.883,17.683-43.445c12.103-12.171,28.5-18.875,46.171-18.875c0.418,0,0.833,0.004,1.253,0.012
			c35.951,0.656,62.067,26.858,62.098,62.303c-0.031,36.032-28.349,65.348-63.126,65.348H164.135z"/>
		<path d="M164.87,93.181v2c0.411,0,0.819,0.004,1.231,0.011c35.383,0.646,61.086,26.428,61.116,61.3
			c-0.031,35.483-27.9,64.351-62.126,64.351l-0.491-0.002l-0.465,0.002c-16.356,0-31.783-6.455-43.438-18.176
			c-12.147-12.216-18.783-28.609-18.685-46.185c-0.092-16.178,6.084-31.349,17.391-42.72c11.914-11.982,28.059-18.581,45.463-18.582
			L164.87,93.181 M164.867,93.181c-35.558,0.001-65.058,27.283-64.854,63.313c-0.206,36.699,28.517,66.349,64.123,66.349
			c0.159,0,0.32-0.001,0.479-0.002c0.161,0.001,0.316,0.002,0.476,0.002c35.369,0,64.095-29.651,64.126-66.349
			c-0.032-36.46-26.955-62.642-63.08-63.302C165.712,93.185,165.291,93.181,164.867,93.181L164.867,93.181z"/>
	</g>
	<g>
		<path fill="#BFBFBF" d="M164.108,196.963c-22.491-0.021-40.17-17.798-40.249-40.473c0.079-22.269,18.002-40.392,39.954-40.392
			h0.584c10.484,0,20.809,4.361,28.327,11.965c7.572,7.658,11.676,17.752,11.556,28.419c0.12,10.766-3.944,20.861-11.441,28.449
			c-7.545,7.637-18.018,12.021-28.733,12.031H164.108z"/>
		<path d="M164.398,117.099c10.219,0,20.284,4.253,27.616,11.668c7.383,7.467,11.385,17.307,11.267,27.75
			c0.117,10.474-3.844,20.315-11.153,27.713c-7.358,7.447-17.572,11.724-28.019,11.733c-10.446-0.01-20.256-4.036-27.624-11.338
			c-7.46-7.394-11.589-17.387-11.626-28.124c0.077-21.725,17.551-39.401,38.954-39.402l0.308,0.001L164.398,117.099
			 M164.398,115.099c-0.096,0-0.194,0-0.291,0.001c-0.099,0-0.195-0.001-0.293-0.001c-22.364,0.001-40.873,18.369-40.954,41.396
			c0.082,23.532,18.751,41.448,41.248,41.469c22.258-0.021,41.435-17.937,41.173-41.469
			C205.542,133.467,186.533,115.099,164.398,115.099L164.398,115.099z"/>
	</g>
	<g>
		<path fill="#FFFFFF" d="M163.994,190.999c-18.942,0-34.369-15.479-34.389-34.505c0.02-18.705,15.3-33.924,34.062-33.924h0.876
			c18.535,0,33.818,15.225,34.067,33.938c-0.248,19.006-15.675,34.49-34.39,34.49H163.994z"/>
		<path d="M164.543,123.57c17.982,0,32.811,14.769,33.067,32.926c-0.256,18.476-15.229,33.503-33.39,33.503h-0.119h-0.108
			c-8.94,0-17.327-3.474-23.616-9.782c-6.292-6.312-9.763-14.737-9.772-23.72c0.019-18.155,14.851-32.926,33.062-32.927
			c0.139,0,0.277,0.001,0.466,0.003C164.269,123.571,164.407,123.57,164.543,123.57 M164.543,121.57
			c-0.144,0-0.291,0.001-0.436,0.003c-0.147-0.002-0.294-0.003-0.441-0.003c-19.436,0.001-35.042,15.75-35.062,34.925
			c0.021,19.685,15.8,35.504,35.389,35.504c0.037,0,0.077,0,0.114,0c0.038,0,0.075,0,0.113,0c19.351,0,35.133-15.82,35.39-35.504
			C199.354,137.318,183.748,121.57,164.543,121.57L164.543,121.57z"/>
	</g>
	<g>
		<path d="M636.184,220.1c-15.641,0.001-30.41-6.184-41.587-17.413c-11.698-11.753-18.096-27.535-18.016-44.44
			c-0.079-16.488,5.886-31.601,16.796-42.563c10.768-10.819,25.63-16.777,41.851-16.777c0.481,0,0.961,0.005,1.445,0.016
			c34.934,0.743,60.221,25.689,60.129,59.316c0.046,16.934-6.388,32.731-18.115,44.491c-11.171,11.201-25.903,17.37-41.483,17.37
			H636.184z"/>
		<path d="M635.229,97.907v2h0.001c0.474,0,0.944,0.005,1.421,0.015c16.655,0.354,31.747,6.357,42.494,16.903
			c10.785,10.582,16.7,25.289,16.656,41.423c0.045,16.659-6.284,32.206-17.823,43.776c-10.982,11.012-25.463,17.076-40.775,17.076
			l-0.525-0.002l-0.494,0.002c-15.373,0-29.892-6.08-40.879-17.12c-11.509-11.563-17.803-27.093-17.724-43.748
			c-0.078-16.209,5.783-31.068,16.503-41.841c10.578-10.629,25.189-16.483,41.144-16.484L635.229,97.907 M635.228,97.907
			c-34.614,0.002-59.811,26.238-59.646,60.335c-0.165,34.761,26.99,62.858,60.603,62.858c0.17,0,0.342-0.001,0.511-0.002
			c0.171,0.001,0.339,0.002,0.509,0.002c33.529,0,60.693-28.1,60.599-62.858c0.095-34.578-25.739-59.567-61.107-60.319
			C636.202,97.912,635.716,97.907,635.228,97.907L635.228,97.907z"/>
	</g>
	<g>
		<path fill="#A6A6A6" d="M636.695,196.963c-21.454-0.021-38.366-16.521-38.503-37.565c0.137-21.177,17.824-39.079,38.625-39.079
			h0.778c20.523,0,37.391,17.311,37.6,38.588c-0.209,20.955-17.48,38.036-38.502,38.057H636.695z"/>
		<path d="M637.596,121.319c9.705,0,18.846,3.898,25.74,10.978c6.903,7.089,10.76,16.543,10.859,26.581
			c-0.203,20.43-17.027,37.066-37.499,37.086c-9.944-0.01-19.306-3.76-26.361-10.56c-7.121-6.863-11.078-16.101-11.143-25.986
			c0.133-20.651,17.363-38.099,37.625-38.099l0.405,0.002L637.596,121.319 M637.596,119.319c-0.13,0-0.263,0.001-0.394,0.002
			c-0.128-0.001-0.257-0.002-0.385-0.002c-21.301,0-39.484,18.196-39.625,40.086c0.142,21.779,18.036,38.538,39.502,38.559
			c21.39-0.021,39.284-17.286,39.501-39.066C675.979,137.011,658.805,119.319,637.596,119.319L637.596,119.319z"/>
	</g>
	<g>
		<path fill="#FFFFFF" d="M636.576,190.999c-17.923,0-32.566-14.696-32.644-32.761c0.077-17.738,14.54-32.176,32.241-32.176
			l0.5,0.004l0.529-0.004c17.627,0,32.091,14.439,32.242,32.188c-0.151,18.049-14.795,32.747-32.643,32.748H636.576z"/>
		<path d="M637.203,127.062c17.08,0,31.096,13.995,31.242,31.163c-0.146,17.52-14.342,31.773-31.643,31.773h-0.12h-0.106
			c-17.374,0-31.568-14.25-31.644-31.748c0.075-17.197,14.09-31.188,31.241-31.188c0.161,0,0.322,0.001,0.485,0.004h0.03h0.03
			C636.881,127.063,637.043,127.062,637.203,127.062 M637.203,125.062c-0.17,0-0.343,0.001-0.514,0.004
			c-0.173-0.003-0.344-0.004-0.516-0.004c-18.371,0.001-33.162,14.959-33.241,33.18c0.08,18.711,15.086,33.757,33.644,33.757
			c0.037,0,0.076,0,0.113,0c0.038,0,0.074,0,0.113,0c18.48,0,33.485-15.047,33.643-33.757
			C670.289,140.02,655.501,125.062,637.203,125.062L637.203,125.062z"/>
	</g>
	<path fill="none" stroke="#000000" stroke-width="2" stroke-miterlimit="10" d="M328.813,75.015v79.151 M552.884,79.954v74.213"/>
	<polygon stroke="#000000" stroke-width="2" stroke-miterlimit="10" points="594.652,76.76 579.076,76.76 250.825,68.029
		244.424,57.552 266.54,17.978 277.016,12.742 344.528,12.742 402.728,12.742 449.286,12.742 513.308,38.346 578.257,68.761 	"/>
	<g>
		<polygon fill="#FFFFFF" points="280.009,61.842 290.031,18.978 319.083,18.978 319.083,63.496 		"/>
		<path d="M318.083,19.978v42.475l-36.825-1.558l9.566-40.917H318.083 M320.083,17.978h-30.845l-10.477,44.813l41.322,1.748V17.978
			L320.083,17.978z"/>
	</g>
	<g>
		<polygon fill="#FFFFFF" points="474.242,67.046 469.345,60.518 447.936,18.246 568.572,70.338 		"/>
		<path d="M450.076,20.26l113.231,48.894l-88.553-3.089l-4.558-6.077L450.076,20.26 M445.795,16.232l22.697,44.815l5.237,6.982
			l100.108,3.493L445.795,16.232L445.795,16.232z"/>
	</g>
	<g>
		<polygon fill="#FFFFFF" points="340.291,63.566 340.291,18.978 440.509,18.978 463.395,66.984 		"/>
		<path d="M439.878,19.978l21.911,45.962l-120.499-3.346V19.978H439.878 M441.14,17.978H339.291v46.561l125.71,3.491L441.14,17.978
			L441.14,17.978z"/>
	</g>
	<g>
		<path fill="#B7B7B7" d="M235.733,37.347c-0.188,0.004-0.3,0.006-0.41,0.006c-2.144,0-4.099-0.776-5.505-2.186
			c-1.2-1.203-1.859-2.759-1.855-4.383c-0.003-1.642,0.656-3.208,1.858-4.412c1.394-1.396,3.33-2.166,5.452-2.166
			c0.125,0,0.251,0.003,0.378,0.008c0.208-0.005,0.328-0.008,0.445-0.008c3.903,0,7.11,2.884,7.327,6.575
			c-0.215,3.628-3.513,6.571-7.375,6.571C235.943,37.353,235.838,37.351,235.733,37.347z"/>
		<path fill="#494949" d="M236.096,25.207c3.295,0,6.109,2.492,6.325,5.575c-0.217,3.082-3.053,5.571-6.374,5.571
			c-0.091,0-0.182-0.001-0.273-0.005l-0.078-0.003l-0.078,0.003c-0.099,0.004-0.197,0.005-0.294,0.005
			c-1.849,0-3.598-0.689-4.797-1.892c-1.011-1.013-1.566-2.318-1.563-3.683c-0.003-1.37,0.553-2.684,1.566-3.699
			c1.204-1.207,2.889-1.872,4.744-1.872c0.111,0,0.223,0.002,0.335,0.007l0.088,0.004l0.089-0.004
			C235.889,25.209,235.993,25.207,236.096,25.207 M236.096,23.207c-0.133,0-0.268,0.003-0.402,0.009
			c-0.142-0.006-0.282-0.009-0.421-0.009c-4.677,0-8.318,3.399-8.31,7.575c-0.009,4.161,3.659,7.571,8.361,7.571
			c0.123,0,0.246-0.002,0.37-0.007c0.118,0.005,0.236,0.007,0.353,0.007c4.487,0,8.163-3.41,8.377-7.571
			C244.211,26.606,240.561,23.207,236.096,23.207L236.096,23.207z"/>
	</g>
	<g>
		<path d="M281.311,19.978l-12.768,42.561h-12.989l-2.477-4.955l16.831-31.418l6.189-6.188H281.311 M283.999,17.978h-8.73
			l-6.984,6.983l-17.46,32.591l3.493,6.986h15.714L283.999,17.978L283.999,17.978z"/>
	</g>
	<g>
		<g>
			<path d="M439.392,171.627c-3.389,0.08-6.775,0.096-10.163,0.128c-3.388,0.046-6.773,0.03-10.159,0.019l-10.158-0.029
				l-10.155-0.111l-10.153-0.172l-10.153-0.224l-20.302-0.51l-20.302-0.509c-6.768-0.154-13.533-0.377-20.299-0.582l-20.298-0.622
				c-6.767-0.189-13.53-0.468-20.295-0.7l1.99-1.927l-0.092,16.878l-1.835-1.835l34.948,0.329l34.947,0.399l8.737,0.1l4.369,0.05
				l1.092,0.013l0.273,0.003l0.214-0.01l0.545-0.025l2.182-0.104l17.456-0.827l17.456-0.827l17.461-0.758l-17.417,1.445
				l-17.422,1.376l-17.422,1.375l-2.178,0.173l-0.544,0.043l-0.332,0.021l-0.273,0.003l-1.092,0.013l-4.369,0.05l-8.737,0.1
				l-34.947,0.399l-34.948,0.329l-1.825,0.018l-0.01-1.853l-0.092-16.878l-0.011-1.988l2.002,0.062
				c6.766,0.209,13.533,0.372,20.298,0.623l20.295,0.702c6.765,0.235,13.531,0.453,20.294,0.741l20.292,0.813l20.292,0.814
				l10.144,0.429l10.144,0.47l10.142,0.53l10.14,0.613c3.38,0.202,6.76,0.399,10.138,0.66
				C432.636,171.104,436.015,171.333,439.392,171.627z"/>
		</g>
	</g>
	<g>
		<path d="M72.092,54.812c0,0,64.177,4.93,128.354,9.86c16.045,1.194,32.09,2.388,47.133,3.507
			c7.523,0.536,14.792,1.135,21.692,1.553c6.898,0.449,13.421,0.873,19.441,1.265c24.082,1.567,40.137,2.612,40.137,2.612
			l-0.072,1.346c0,0-16.063-1.004-40.157-2.511c-6.024-0.376-12.549-0.785-19.452-1.216c-6.905-0.401-14.172-0.982-21.698-1.498
			c-15.049-1.082-31.102-2.235-47.154-3.389c-64.19-4.767-128.379-9.534-128.379-9.534L72.092,54.812z"/>
	</g>
	<g>
		<polygon fill="#FFFFFF" points="520.64,79.171 519.101,75.071 525.103,65.498 528.401,64.285 526.71,75.399 543.214,79.171 		"/>
		<path d="M527.779,65.046l-1.493,9.819l-0.14,0.918l0.905,0.207l11.73,2.681h-17.797l-1.329-3.544l5.779-9.219L527.779,65.046
			 M529.022,63.523l-4.253,1.564l-6.224,9.928l1.747,4.656h27.353l-20.371-4.656L529.022,63.523L529.022,63.523z"/>
	</g>
	<g>
		<path fill="#FFFFFF" d="M510.816,51.931c6.57,2.071,16.205,5.329,17.591,6.41l0.307,0.238c2.084,1.619,3.331,2.688,2.914,3.74
			c-1.114,1.174-11.181,4.809-20.812,7.843V51.931z"/>
		<path d="M511.816,53.296c7.401,2.358,14.867,4.992,15.977,5.833l0.308,0.24c0.839,0.652,2.351,1.826,2.586,2.407
			c-1.948,1.261-10.62,4.381-18.87,7.019V53.296 M509.816,50.571v20.951c0,0,21.807-6.773,22.697-8.731s-1.313-3.541-3.491-5.238
			C526.846,55.854,509.816,50.571,509.816,50.571L509.816,50.571z"/>
	</g>
	<line fill="none" stroke="#000000" stroke-width="2" stroke-miterlimit="10" x1="515.055" y1="53.75" x2="515.055" y2="69.776"/>
	<g>
		<rect x="347.306" y="86.014" fill="#FFFFFF" width="13.217" height="6.234"/>
		<path d="M360.148,86.389v5.484h-12.467v-5.484H360.148 M360.898,85.639h-13.967v6.984h13.967V85.639L360.898,85.639z"/>
	</g>
	<g>
		<path d="M377.366,84.662v7.477h-31.338v-7.477H377.366 M378.866,83.162h-34.338v10.477h34.338V83.162L378.866,83.162z"/>
	</g>
	<g>
		<rect x="326.321" y="20.723" width="6.731" height="42.816"/>
		<path d="M332.052,21.723v40.816h-4.731V21.723H332.052 M334.052,19.723h-8.731v44.816h8.731V19.723L334.052,19.723z"/>
	</g>
	<g>
		<path fill="#9E9E9E" d="M799.881,179.72c-14.103,0-36.042-1.13-52.652-2.126c13.931-0.509,30.808-1.521,40.354-3.529
			c14.879-3.131,21.854-6.749,24.074-8.09c1.787,2.358,4.874,7.292,4.07,10.391c-0.295,1.136-1.103,1.945-2.469,2.476
			c-1.032,0.401-4.19,0.879-13.374,0.879C799.883,179.72,799.882,179.72,799.881,179.72z"/>
		<path fill="#9E9E9E" d="M811.377,167.287c1.667,2.354,4.015,6.384,3.382,8.827c-0.133,0.512-0.471,1.255-1.862,1.796
			c-0.628,0.243-3.153,0.811-13.016,0.811c-9.159,0-21.638-0.478-33.809-1.086c8.312-0.593,16.172-1.424,21.716-2.591
			C801.297,172.201,808.417,168.923,811.377,167.287 M811.877,164.641c0,0-6.227,4.6-24.501,8.445
			c-18.273,3.846-63.112,4.016-63.112,4.016s50.188,3.618,75.617,3.618c6.91,0,11.989-0.267,13.739-0.946
			C821.811,176.594,811.877,164.641,811.877,164.641L811.877,164.641z"/>
	</g>
	<g>
		<polygon fill="#A3A3A3" points="519.136,76.478 520.842,78.403 535.27,79.681 450.646,86.639 		"/>
		<path fill="#A3A3A3" d="M518.746,77.546l1.083,1.222l0.528,0.595l0.792,0.07l2.366,0.209l-42.41,3.488L518.746,77.546
			 M519.524,75.409l-99.336,14.738l126.834-10.43l-25.696-2.275L519.524,75.409L519.524,75.409z"/>
	</g>
	<g>
		<path d="M47.744,63.539c0,0,45.333,1.602,113.333,4.003c16.999,0.62,35.415,1.292,54.893,2.001
			c19.479,0.654,40.021,1.344,61.271,2.057c21.25,0.713,43.208,1.45,65.521,2.199c22.316,0.64,44.985,1.29,67.655,1.939
			c11.335,0.317,22.67,0.634,33.961,0.95c5.646,0.158,11.28,0.315,16.897,0.473c5.619,0.103,11.221,0.206,16.8,0.308
			c22.319,0.406,44.284,0.805,65.54,1.191c42.555,0.756,82.239,3.343,116.034,7.516c4.221,0.551,8.361,1.022,12.393,1.608
			c4.031,0.583,7.969,1.152,11.808,1.707c3.829,0.625,7.559,1.234,11.185,1.827c3.63,0.569,7.128,1.281,10.532,1.883
			c1.701,0.312,3.374,0.619,5.02,0.92c1.639,0.337,3.249,0.668,4.831,0.993c3.161,0.667,6.218,1.263,9.137,1.921
			c5.828,1.357,11.2,2.519,15.998,3.795c2.405,0.611,4.682,1.19,6.824,1.734c2.129,0.592,4.125,1.148,5.981,1.665
			c3.715,1.03,6.872,1.915,9.404,2.727c5.081,1.563,7.791,2.396,7.791,2.396s-2.722-0.794-7.824-2.284
			c-2.542-0.775-5.711-1.614-9.438-2.59c-1.863-0.49-3.865-1.016-6.001-1.578c-2.148-0.513-4.432-1.059-6.844-1.635
			c-4.811-1.206-10.195-2.289-16.035-3.56c-2.924-0.615-5.986-1.166-9.151-1.787c-1.584-0.307-3.196-0.62-4.836-0.938
			c-1.646-0.286-3.319-0.577-5.021-0.873c-3.405-0.57-6.904-1.249-10.535-1.783c-3.625-0.558-7.355-1.131-11.184-1.72
			c-3.838-0.519-7.775-1.05-11.806-1.595c-4.029-0.547-8.169-0.979-12.388-1.49c-16.891-1.894-35.236-3.528-54.679-4.688
			c-19.444-1.171-39.969-1.889-61.216-2.174c-21.264-0.367-43.236-0.747-65.563-1.132c-5.582-0.097-11.186-0.194-16.806-0.292
			c-5.619-0.152-11.254-0.305-16.9-0.458c-11.293-0.305-22.63-0.612-33.967-0.919c-22.673-0.629-45.347-1.259-67.666-1.878
			c-22.315-0.729-44.277-1.446-65.529-2.141c-21.253-0.694-41.797-1.365-61.279-2.002c-19.478-0.71-37.894-1.381-54.893-2.001
			C93,67.258,47.67,65.538,47.67,65.538L47.744,63.539z"/>
	</g>
	<line fill="none" stroke="#000000" stroke-width="2" stroke-miterlimit="10" x1="47.707" y1="64.539" x2="47.544" y2="107.605"/>
	<g>
		<g>
			<polygon fill="#FFFFFF" points="627.61,144.498 626.469,141.815 628.222,139.485 631.116,139.837 632.257,142.52 630.505,144.85
							"/>
			<path d="M628.447,140.016l2.321,0.283l0.915,2.15l-1.404,1.869l-2.321-0.282l-0.916-2.151L628.447,140.016 M627.995,138.954
				l-2.1,2.792l1.368,3.214l3.468,0.422l2.099-2.792l-1.367-3.213L627.995,138.954L627.995,138.954z"/>
		</g>
		<g>
			<polygon fill="#FFFFFF" points="649.597,148.648 648.717,145.867 650.683,143.714 653.53,144.343 654.412,147.124
				652.445,149.275 			"/>
			<path d="M650.857,144.265l2.283,0.504l0.707,2.23l-1.577,1.726l-2.284-0.504l-0.705-2.23L650.857,144.265 M650.509,143.164
				l-2.355,2.579l1.054,3.331l3.412,0.752l2.356-2.578l-1.056-3.33L650.509,143.164L650.509,143.164z"/>
		</g>
		<g>
			<polygon fill="#FFFFFF" points="652.318,168.002 651.708,165.15 653.874,163.197 656.646,164.093 657.257,166.945 655.091,168.9
							"/>
			<path d="M653.994,163.761l2.224,0.719l0.489,2.287l-1.736,1.568l-2.224-0.72l-0.49-2.288L653.994,163.761 M653.753,162.632
				l-2.595,2.34l0.731,3.417l3.322,1.075l2.594-2.342l-0.73-3.416L653.753,162.632L653.753,162.632z"/>
		</g>
		<g>
			<polygon fill="#FFFFFF" points="633.438,178.48 633.104,175.584 635.446,173.846 638.122,175.005 638.456,177.902
				636.115,179.64 			"/>
			<path d="M635.512,174.42l2.146,0.93l0.269,2.322l-1.878,1.394l-2.146-0.931l-0.269-2.321L635.512,174.42 M635.38,173.273
				l-2.806,2.082l0.4,3.469l3.207,1.39l2.805-2.082l-0.4-3.47L635.38,173.273L635.38,173.273z"/>
		</g>
		<g>
			<polygon fill="#FFFFFF" points="617.123,163.654 617.068,160.737 619.563,159.231 622.116,160.64 622.171,163.557
				619.677,165.063 			"/>
			<path d="M619.574,159.808l2.047,1.131l0.045,2.34l-2.001,1.207l-2.047-1.131l-0.045-2.34L619.574,159.808 M619.552,158.654
				l-2.989,1.804l0.066,3.494l3.059,1.688l2.989-1.804l-0.066-3.494L619.552,158.654L619.552,158.654z"/>
		</g>
		<circle fill="#FFFFFF" stroke="#000000" stroke-width="2" stroke-miterlimit="10" cx="636.919" cy="158.479" r="6.278"/>
	</g>
	<g>
		<g>
			<polygon fill="#FFFFFF" points="162.211,139.598 162.563,136.705 165.247,135.563 167.577,137.316 167.224,140.209
				164.542,141.351 			"/>
			<path d="M165.177,136.136l1.869,1.405l-0.283,2.32l-2.151,0.916l-1.869-1.405l0.283-2.32L165.177,136.136 M165.316,134.99
				l-3.214,1.368l-0.422,3.467l2.792,2.1l3.214-1.368l0.422-3.467L165.316,134.99L165.316,134.99z"/>
		</g>
		<g>
			<polygon fill="#FFFFFF" points="178.805,152.798 179.434,149.95 182.213,149.069 184.365,151.037 183.737,153.885
				180.958,154.765 			"/>
			<path d="M182.089,149.633l1.726,1.578l-0.503,2.284l-2.229,0.705l-1.727-1.577l0.504-2.284L182.089,149.633 M182.337,148.505
				l-3.33,1.055l-0.753,3.412l2.579,2.356l3.33-1.054l0.751-3.412L182.337,148.505L182.337,148.505z"/>
		</g>
		<g>
			<polygon fill="#FFFFFF" points="172.989,172.375 173.886,169.601 176.738,168.992 178.692,171.155 177.794,173.929
				174.942,174.54 			"/>
			<path d="M176.561,169.542l1.567,1.734l-0.72,2.225l-2.287,0.49l-1.566-1.735l0.72-2.226L176.561,169.542 M176.916,168.443
				l-3.417,0.729l-1.075,3.324l2.34,2.593l3.417-0.731l1.076-3.324L176.916,168.443L176.916,168.443z"/>
		</g>
		<g>
			<polygon fill="#FFFFFF" points="148.44,172.059 149.599,169.385 152.496,169.051 154.233,171.393 153.076,174.067
				150.179,174.402 			"/>
			<path d="M152.266,169.581l1.394,1.879l-0.929,2.145l-2.323,0.268l-1.395-1.879l0.929-2.145L152.266,169.581 M152.725,168.521
				l-3.47,0.4l-1.388,3.204l2.083,2.806l3.47-0.4l1.387-3.204L152.725,168.521L152.725,168.521z"/>
		</g>
		<g>
			<polygon fill="#FFFFFF" points="143.297,151.384 144.708,148.83 147.622,148.775 149.128,151.271 147.717,153.825
				144.804,153.88 			"/>
			<path d="M147.342,149.28l1.208,2.003l-1.131,2.048l-2.336,0.045l-1.208-2.003l1.131-2.048L147.342,149.28 M147.9,148.269
				l-3.491,0.066l-1.689,3.06l1.805,2.991l3.491-0.067l1.689-3.059L147.9,148.269L147.9,148.269z"/>
		</g>
		<circle fill="#FFFFFF" stroke="#000000" stroke-width="2" stroke-miterlimit="10" cx="163.282" cy="156.36" r="6.278"/>
	</g>

		<circle fill="none" stroke="#000000" stroke-width="0.5" stroke-linecap="round" stroke-linejoin="round" stroke-miterlimit="10" cx="351.884" cy="89.131" r="2.029"/>
</g>
</svg>
