<?xml version="1.0" encoding="utf-8"?>
<svg version="1.1" id="Layer_1" xmlns="http://www.w3.org/2000/svg"
  xmlns:xlink="http://www.w3.org/1999/xlink" x="0px" y="0px"
  width="786.087px" height="217.392px" viewBox="0 0 786.087 217.392"
  enable-background="new 0 0 786.087 217.392"
  xml:space="preserve">
<g>
	<polyline stroke="#000000" stroke-width="2" stroke-linecap="round" stroke-linejoin="round" stroke-miterlimit="10" points="
		227.627,189.939 277.782,189.939 284.051,194.64 342.824,194.64 349.878,189.939 393.761,189.939 395.329,196.208 497.201,194.64
		503.47,200.908 530.114,186.802 522.279,168.779 	"/>
	<polyline stroke="#000000" stroke-width="2" stroke-linecap="round" stroke-linejoin="round" stroke-miterlimit="10" points="
		625.724,191.505 671.956,188.371 678.225,193.074 689.197,183.667 695.466,183.667 695.466,160.941 635.123,167.211 	"/>

		<polyline fill="#FFFFFF" stroke="#000000" stroke-width="2" stroke-linecap="round" stroke-linejoin="round" stroke-miterlimit="10" points="
		703.304,164.076 730.729,172.698 727.595,185.236 695.466,171.13 	"/>

		<path fill="#808080" stroke="#000000" stroke-width="2" stroke-linecap="round" stroke-linejoin="round" stroke-miterlimit="10" d="
		M695.466,103.737h4.7c11.916-0.364,21.626,9.349,21.944,21.156v34.482c-0.318,11.696-10.028,21.405-21.944,21.157h-4.7
		c-11.957,0.248-21.664-9.461-21.944-21.157v-34.482C673.802,113.086,683.509,103.373,695.466,103.737L695.466,103.737z"/>
	<path stroke="#000000" stroke-width="2" stroke-linecap="round" stroke-linejoin="round" stroke-miterlimit="10" d="
		M701.734,137.435h3.135c11.855,0,21.568,5.201,21.941,11.754l0,0c-0.373,6.266-10.086,11.466-21.941,11.753h-3.135
		c-12.033-0.287-21.743-5.487-21.944-11.753l0,0C679.991,142.636,689.701,137.435,701.734,137.435L701.734,137.435z"/>

		<line fill="none" stroke="#FFFFFF" stroke-width="2" stroke-linecap="round" stroke-linejoin="round" stroke-miterlimit="10" x1="722.11" y1="142.135" x2="697.035" y2="142.135"/>

		<polyline fill="#404040" stroke="#000000" stroke-width="2" stroke-linecap="round" stroke-linejoin="round" stroke-miterlimit="10" points="
		492.501,183.667 508.176,189.939 624.154,189.939 642.961,177.398 624.154,109.222 555.975,97.468 505.038,113.925 	"/>
	<path stroke="#FFFFFF" stroke-width="2" stroke-linecap="round" stroke-linejoin="round" stroke-miterlimit="10" d="
		M572.435,99.037c32.008-0.307,58.018,25.7,57.989,57.989c0.028,31.804-25.981,57.816-57.989,57.989
		c-32.082-0.173-58.092-26.186-57.989-57.989C514.343,124.737,540.353,98.73,572.435,99.037L572.435,99.037z"/>

		<path fill="#FFFFFF" stroke="#808080" stroke-width="2" stroke-linecap="round" stroke-linejoin="round" stroke-miterlimit="10" d="
		M571.649,117.06c21.339,0.252,38.676,17.589,38.398,39.182c0.277,21.135-17.06,38.475-38.398,38.398
		c-21.39,0.076-38.729-17.264-38.397-38.398C532.92,134.648,550.26,117.312,571.649,117.06L571.649,117.06z"/>

		<path fill="#FFFFFF" stroke="#000000" stroke-width="2" stroke-linecap="round" stroke-linejoin="round" stroke-miterlimit="10" d="
		M573.219,123.328c19.61,0.172,35.56,15.43,35.26,34.479c0.3,18.555-15.649,33.813-35.26,33.697
		c-19.7,0.115-35.656-15.143-35.267-33.697C537.563,138.758,553.519,123.5,573.219,123.328L573.219,123.328z"/>
	<path stroke="#000000" stroke-width="2" stroke-linecap="round" stroke-linejoin="round" stroke-miterlimit="10" d="
		M572.435,128.028c15.771,0.118,28.602,12.949,28.991,28.998c-0.39,15.57-13.221,28.398-28.991,28.21
		c-15.848,0.188-28.676-12.64-28.998-28.21C543.759,140.978,556.587,128.146,572.435,128.028L572.435,128.028z"/>
	<path fill="none" stroke="#FFFFFF" stroke-width="2" stroke-linecap="round" stroke-linejoin="round" stroke-miterlimit="10" d="
		M593.591,139l-25.075,14.107l-17.241,21.156l25.075-13.322L593.591,139L593.591,139z M551.274,139l25.075,14.107l15.676,22.726
		l-23.51-14.892L551.274,139L551.274,139z M565.381,157.808l6.269-28.211l7.838,25.076l-7.838,28.994L565.381,157.808
		L565.381,157.808z M571.649,149.973l28.211,7.835l-28.211,6.269l-26.645-6.269L571.649,149.973L571.649,149.973z M585.757,132.731
		l-18.807,20.376l-6.272,28.994l17.241-21.16L585.757,132.731L585.757,132.731z M559.112,131.166l7.838,29.775l15.669,21.16
		l-4.7-28.994L559.112,131.166L559.112,131.166z M598.294,146.838l-26.645,4.7l-25.075,15.673l29.775-6.27L598.294,146.838
		L598.294,146.838z M546.574,146.838l26.645,4.7l25.075,15.673l-28.213-4.7L546.574,146.838L546.574,146.838z"/>

		<path fill="#FFFFFF" stroke="#000000" stroke-width="2" stroke-linecap="round" stroke-linejoin="round" stroke-miterlimit="10" d="
		M571.649,149.973c3.394-0.153,6.164,2.621,6.27,6.269c-0.105,3.189-2.876,5.963-6.27,6.27c-3.443-0.307-6.221-3.08-6.269-6.27
		C565.429,152.594,568.206,149.819,571.649,149.973L571.649,149.973z"/>

		<polyline fill="#404040" stroke="#000000" stroke-width="2" stroke-linecap="round" stroke-linejoin="round" stroke-miterlimit="10" points="
		95.975,183.667 111.647,189.939 227.627,189.939 246.436,177.398 227.627,109.222 159.45,97.468 108.513,113.925 	"/>
	<path stroke="#FFFFFF" stroke-width="2" stroke-linecap="round" stroke-linejoin="round" stroke-miterlimit="10" d="
		M172.772,99.037c32.253-0.307,58.26,25.7,57.989,57.989c0.271,31.804-25.736,57.816-57.989,57.989
		c-31.839-0.173-57.845-26.186-57.989-57.989C114.927,124.737,140.934,98.73,172.772,99.037L172.772,99.037z"/>

		<path fill="#FFFFFF" stroke="#808080" stroke-width="2" stroke-linecap="round" stroke-linejoin="round" stroke-miterlimit="10" d="
		M171.988,117.06c21.581,0.252,38.922,17.589,39.183,39.182c-0.26,21.135-17.602,38.475-39.183,38.398
		c-21.147,0.076-38.486-17.264-38.398-38.398C133.502,134.648,150.841,117.312,171.988,117.06L171.988,117.06z"/>

		<path fill="#FFFFFF" stroke="#000000" stroke-width="2" stroke-linecap="round" stroke-linejoin="round" stroke-miterlimit="10" d="
		M173.556,123.328c19.853,0.172,35.807,15.43,36.048,34.479c-0.241,18.555-16.195,33.813-36.048,33.697
		c-19.458,0.115-35.407-15.143-35.264-33.697C138.148,138.758,154.098,123.5,173.556,123.328L173.556,123.328z"/>
	<path stroke="#000000" stroke-width="2" stroke-linecap="round" stroke-linejoin="round" stroke-miterlimit="10" d="
		M172.772,128.028c16.015,0.118,28.848,12.949,28.995,28.998c-0.146,15.57-12.979,28.398-28.995,28.21
		c-15.601,0.188-28.433-12.64-28.211-28.21C144.339,140.978,157.172,128.146,172.772,128.028L172.772,128.028z"/>
	<path fill="none" stroke="#FFFFFF" stroke-width="2" stroke-linecap="round" stroke-linejoin="round" stroke-miterlimit="10" d="
		M193.931,139l-25.077,14.107l-16.457,21.156l24.294-13.322L193.931,139L193.931,139z M152.397,139l24.294,14.107l15.672,22.726
		l-23.51-14.892L152.397,139L152.397,139z M165.719,157.808l6.269-28.211l7.838,25.076l-7.838,28.994L165.719,157.808
		L165.719,157.808z M171.988,149.973l28.212,7.835l-28.212,6.269l-25.86-6.269L171.988,149.973L171.988,149.973z M186.095,132.731
		l-18.808,20.376l-6.269,28.994l17.241-21.16L186.095,132.731L186.095,132.731z M159.45,131.166l7.836,29.775l15.674,21.16
		l-4.702-28.994L159.45,131.166L159.45,131.166z M198.633,146.838l-26.645,4.7l-24.293,15.673l28.996-6.27L198.633,146.838
		L198.633,146.838z M147.695,146.838l25.86,4.7l25.077,15.673l-28.212-4.7L147.695,146.838L147.695,146.838z"/>

		<path fill="#FFFFFF" stroke="#000000" stroke-width="2" stroke-linecap="round" stroke-linejoin="round" stroke-miterlimit="10" d="
		M171.988,149.973c3.635-0.153,6.411,2.621,6.271,6.269c0.14,3.189-2.635,5.963-6.271,6.27c-3.2-0.307-5.974-3.08-6.269-6.27
		C166.014,152.594,168.789,149.819,171.988,149.973L171.988,149.973z"/>

		<path fill="#FFFFFF" stroke="#000000" stroke-width="2" stroke-linecap="round" stroke-linejoin="round" stroke-miterlimit="10" d="
		M725.245,97.468c-14.806,3.843-24.353,18.811-28.995,44.667c-4.648,25.745-7.486,38.13-8.622,36.832
		c-0.925-0.765-9.7,1.043-25.86,5.485c-16.867,4.847-26.673,0.973-29.775-11.754c-3.087-12.044-7.735-24.687-14.106-37.616
		c-6.014-12.87-16.077-21.903-29.779-27.426c-14.161-4.8-27.837-3.505-41.532,3.919c-13.138,8.058-21.913,17.862-25.86,29.775
		c-4.308,11.823-7.404,22.4-9.406,31.348c-2.124,9.633-7.803,14.275-17.238,14.104c-9.139,0.172-22.04,0.172-38.397,0
		c-16.671,0.172-38.864,0.172-66.611,0c-27.984,0.172-60.234,0.172-97.173,0c-36.341,0.172-53.627-0.603-51.72-2.35
		c2.219-1.35,0.415-12.185-5.486-32.13c-5.453-20.305-16.806-33.723-33.696-40.747c-17.169-6.391-34.97-5.877-53.289,1.565
		c-18.837,8.038-30.447,20.165-35.264,36.832c-4.474,16.361-7.312,26.683-8.62,30.561c-0.754,4.378-9.528,6.44-25.86,6.269
		c-16.694,0.172-34.497,0.172-53.288,0c-19.398,0.172-22.752-1.119-10.188-3.916c12.205-2.362,18.398-8.813,18.024-18.81
		c0.375-10.644,0.891-17.353,1.567-20.372c1.387-3.173,13.257-11.429,36.048-25.079c22.62-13.186,48.423-23.766,77.58-31.345
		c28.639-7.901,55.988-12.544,81.5-14.104c26.093-1.537,43.124-4.375,51.722-8.622c7.914-4.011,20.041-12.784,36.048-25.86
		c15.99-13.757,27.084-22.015,32.914-25.077c6.556-3.128,18.682-5.194,36.829-6.269c17.978-0.99,40.426-0.473,67.396,1.567
		c26.695,2.09,48.886,6.733,66.611,14.105c17.365,7.076,34.399,14.303,50.936,21.159c16.486,7.592,34.033,14.304,52.505,20.375
		c18.683,6.313,33.647,9.665,44.667,10.188c11.687,0.507,22.008-2.844,31.345-10.188c9.237-7.104,19.301-9.688,29.779-7.838
		c11.198,2.28,16.103,5.893,14.891,10.972c-0.857,5.239-1.629,10.915-2.35,17.241c-0.313,6.058-6.244,9.674-17.241,10.969"/>

		<path fill="#FFFFFF" stroke="#000000" stroke-width="2" stroke-linecap="round" stroke-linejoin="round" stroke-miterlimit="10" d="
		M348.309,16.751c3.479-0.072,3.739,2.25,0.784,7.054c-2.207,4.486-5.819,9.649-10.188,15.672
		c-4.92,5.33-10.338,12.552-16.457,21.158c-6.266,8.941-12.201,13.842-18.024,14.888c-5.531,1.018-13.015,0.501-21.941-1.565
		c-9.649-2.06-11.197-4.898-4.702-8.619c5.889-3.504,18.532-12.538,37.615-26.645C334.502,23.905,345.597,16.68,348.309,16.751
		L348.309,16.751z"/>

		<path fill="#FFFFFF" stroke="#000000" stroke-width="2" stroke-linecap="round" stroke-linejoin="round" stroke-miterlimit="10" d="
		M398.464,21.453c-19.84-0.127-31.708,0.389-36.048,1.567c-3.919,0.885-10.368,7.851-18.808,20.375
		c-9.105,13.279-14.781,22.568-17.24,28.212c-2.704,5.708,18.971,8.029,65.042,7.053c45.786-1.09,81.649-1.09,107.359,0
		c25.892,0.976,44.473-0.574,55.64-4.703c11.536-4.123,5.602-12.124-17.241-24.294c-23.6-11.567-47.595-19.309-72.097-22.724
		C440.034,23.132,417.841,21.326,398.464,21.453L398.464,21.453z"/>

		<path fill="#BFBFBF" stroke="#000000" stroke-width="2" stroke-linecap="round" stroke-linejoin="round" stroke-miterlimit="10" d="
		M47.389,149.973c4.892-0.153,8.708,5.048,8.621,11.754c0.088,6.112-3.729,11.313-8.621,10.972
		c-4.505,0.341-8.324-4.859-8.62-10.972C39.065,155.021,42.884,149.819,47.389,149.973L47.389,149.973z"/>

		<path fill="#BFBFBF" stroke="#000000" stroke-width="2" stroke-linecap="round" stroke-linejoin="round" stroke-miterlimit="10" d="
		M52.091,151.538c2.271-0.172,4.006,3.992,3.918,9.403c0.088,4.844-1.647,9.005-3.918,8.622c-2.003,0.383-3.736-3.778-3.919-8.622
		C48.355,155.53,50.088,151.366,52.091,151.538L52.091,151.538z"/>
	<polygon fill="#DFDFDF" points="232.331,106.087 254.272,128.028 260.541,157.808 262.108,171.13 469.775,171.13 495.635,135.866
		525.414,91.199 475.263,103.737 324.016,103.737 232.331,106.087 	"/>
	<path fill="none" stroke="#404040" stroke-width="2" stroke-linecap="round" stroke-linejoin="round" stroke-miterlimit="10" d="
		M730.729,103.737c-35.773,1.702-75.25-0.622-118.328-7.054c-42.582-6.983-68.643-7.5-77.584-1.568
		c-9.64,5.42-19.444,19.613-29.779,42.319c-10.306,22.707-20.369,34.059-30.56,33.695c-9.42,0.363-85.533,0.363-228.043,0"/>
	<path fill="none" stroke="#000000" stroke-width="2" stroke-linecap="round" stroke-linejoin="round" stroke-miterlimit="10" d="
		M381.223,21.453L365.55,77.092 M427.458,26.155L414.92,77.092"/>

		<line fill="none" stroke="#000000" stroke-width="2" stroke-linecap="round" stroke-linejoin="round" stroke-miterlimit="10" x1="483.098" y1="35.56" x2="474.479" y2="77.092"/>

		<polygon fill="none" stroke="#000000" stroke-width="2" stroke-linecap="round" stroke-linejoin="round" stroke-miterlimit="10" points="
		257.406,103.737 249.57,121.76 266.81,121.76 257.406,103.737 	"/>
	<path stroke="#000000" stroke-width="2" stroke-linecap="round" stroke-linejoin="round" stroke-miterlimit="10" d="
		M706.438,62.986c-13.546,11.492-20.771,18.976-21.945,22.729c-0.889,3.469,8.916,4.757,29.779,3.916
		c20.42-1.221,32.289-2.51,35.264-3.916c3.218-1.69,9.154-8.399,18.025-20.376c8.674-11.763,13.316-19.244,14.106-22.727
		c0.243-2.71-6.725-3.226-21.159-0.783c-14.461,1.684-23.753,2.978-28.211,3.134C728.501,45.837,719.726,51.771,706.438,62.986
		L706.438,62.986z"/>
	<polygon fill="#DFDFDF" points="711.138,100.603 679.79,110.79 668.821,153.107 658.634,172.698 635.123,177.398 655.499,182.102
		681.359,177.398 687.628,165.645 697.035,118.625 711.138,100.603 	"/>
	<path fill="none" stroke="#000000" stroke-width="2" stroke-linecap="round" stroke-linejoin="round" stroke-miterlimit="10" d="
		M266.81,73.958c-0.169-10.258,9.534-18.574,21.159-18.807"/>
	<polygon fill="#808080" points="168.854,84.93 117.918,100.603 128.889,106.087 176.691,92.768 168.854,84.93 	"/>

		<path fill="#FFFFFF" stroke="#000000" stroke-width="2" stroke-linecap="round" stroke-linejoin="round" stroke-miterlimit="10" d="
		M452.534,91.199c8.428-0.211,15.362,3.954,15.675,9.403c-0.313,4.802-7.247,8.967-15.675,8.619
		c-8.661,0.348-15.6-3.817-15.673-8.619C436.935,95.153,443.873,90.988,452.534,91.199L452.534,91.199z"/>
	<path fill="none" stroke="#000000" stroke-width="2" stroke-linecap="round" stroke-linejoin="round" stroke-miterlimit="10" d="
		M452.534,97.468c9.285-0.287,16.912,3.18,17.241,7.835 M432.158,105.303c0.134-4.655,9.146-8.122,20.376-7.835"/>
	<path fill="none" stroke="#404040" stroke-width="2" stroke-linecap="round" stroke-linejoin="round" stroke-miterlimit="10" d="
		M729.164,107.656c-29.56,5.522-65.942,4.751-108.929-1.569c-42.68-7.098-68.738-7.614-78.364-1.565
		c-8.951,5.306-18.756,19.495-28.995,42.316c-10.401,22.592-20.465,33.943-30.563,33.695c-9.512,0.248-89.758,0.248-240.579,0"/>
	<path fill="none" stroke="#BFBFBF" stroke-width="2" stroke-linecap="round" stroke-linejoin="round" stroke-miterlimit="10" d="
		M726.811,103.737c-30.306,4.799-66.688,4.023-109.709-2.351c-42.64-7.04-68.7-7.557-78.365-1.568
		c-8.915,5.366-18.718,19.556-28.994,42.316c-10.367,22.652-20.431,34.004-30.563,33.698c-9.477,0.306-85.591,0.306-228.041,0"/>

		<polygon fill="#FFFFFF" stroke="#000000" stroke-width="2" stroke-linecap="round" stroke-linejoin="round" stroke-miterlimit="10" points="
		334.988,97.468 325.583,105.303 317.747,107.656 317.747,121.76 327.15,121.76 327.15,156.241 342.824,156.241 342.824,97.468
		334.988,97.468 	"/>
	<polygon stroke="#000000" stroke-width="2" stroke-linecap="round" stroke-linejoin="round" stroke-miterlimit="10" points="
		333.421,102.168 327.15,107.656 320.882,110.79 320.882,118.625 330.287,118.625 330.287,151.538 339.69,151.538 339.69,102.168
		333.421,102.168 	"/>
	<path fill="none" stroke="#404040" stroke-width="2" stroke-linecap="round" stroke-linejoin="round" stroke-miterlimit="10" d="
		M371.819,16.751c51.702-0.072,89.114,3.024,112.06,9.404c23.5,6.006,44.912,14.263,64.261,24.292
		c19.872,10.612,37.933,17.576,54.07,21.16c16.888,3.642,37.014,5.963,61.127,7.053"/>
	<path fill="none" stroke="#000000" stroke-width="2" stroke-linecap="round" stroke-linejoin="round" stroke-miterlimit="10" d="
		M708.004,66.124c-12.531,9.387-25.433,15.063-39.183,17.238c-13.083,1.952-9.215,4.018,11.754,6.269
		c21.348,1.875,38.12-1.221,50.154-9.403"/>
	<path fill="none" stroke="#404040" stroke-width="2" stroke-linecap="round" stroke-linejoin="round" stroke-miterlimit="10" d="
		M726.811,94.334c-27.206,0.787-47.333,0.525-61.124-0.785c-13.045-1.785-24.913-3.849-35.263-6.269
		c-10.294-2.739-20.873-5.061-31.345-7.053c-11.202-2.14-23.846-3.169-38.401-3.135"/>
	<polygon fill="#DFDFDF" points="130.456,112.355 105.378,115.49 77.951,135.866 66.98,171.13 51.307,182.102 88.922,183.667
		99.11,167.211 110.08,132.731 130.456,112.355 	"/>

		<line fill="none" stroke="#000000" stroke-width="2" stroke-linecap="round" stroke-linejoin="round" stroke-miterlimit="10" x1="34.067" y1="145.27" x2="103.812" y2="145.27"/>

		<line fill="none" stroke="#000000" stroke-width="2" stroke-linecap="round" stroke-linejoin="round" stroke-miterlimit="10" x1="22.312" y1="182.102" x2="92.056" y2="182.102"/>
	<path fill="#BFBFBF" d="M344.392,81.792c5.639-0.089,10.494,1.99,10.188,4.704c0.306,2.414-4.549,4.492-10.188,4.703
		c-6.325-0.211-11.181-2.29-10.971-4.703C333.21,83.782,338.067,81.703,344.392,81.792L344.392,81.792z"/>
	<path fill="none" stroke="#000000" stroke-width="2" stroke-linecap="round" stroke-linejoin="round" stroke-miterlimit="10" d="
		M324.016,77.092c-21.769,4.094-33.379,6.932-35.264,8.623c-1.211,1.406-4.823,10.437-10.188,26.641
		c-5.988,16.824-6.247,41.077-0.783,72.881 M474.479,77.092c5.803,32.994-8.128,68.598-42.32,106.575"/>

		<path fill="#FFFFFF" stroke="#000000" stroke-width="2" stroke-linecap="round" stroke-linejoin="round" stroke-miterlimit="10" d="
		M342.04,61.42c-2.896-0.876-8.571,1.445-17.24,7.05c-8.878,5.749-8.617,9.617,0.783,11.757c9.175,1.993,14.854,2.765,17.241,2.35
		c1.74-0.616,2.773-3.973,3.135-10.185C345.597,66.219,344.307,62.609,342.04,61.42L342.04,61.42z"/>

		<polyline fill="#808080" stroke="#000000" stroke-width="2" stroke-linecap="round" stroke-linejoin="round" stroke-miterlimit="10" points="
		484.663,113.925 497.201,117.06 479.963,157.808 468.209,156.241 	"/>
	<polygon fill="#BFBFBF" points="215.874,107.656 237.032,123.328 243.301,142.135 249.57,167.211 263.675,168.779 258.974,139
		252.705,124.894 238.6,109.222 215.874,107.656 	"/>

		<polyline fill="none" stroke="#000000" stroke-width="2" stroke-linecap="round" stroke-linejoin="round" stroke-miterlimit="10" points="
		508.176,19.886 509.742,27.722 587.322,59.854 593.591,53.585 	"/>

		<polygon fill="none" stroke="#FFFFFF" stroke-width="2" stroke-linecap="round" stroke-linejoin="round" stroke-miterlimit="10" points="
		774.615,45.748 733.864,48.879 695.466,81.792 746.401,80.227 774.615,45.748 	"/>
	<polygon stroke="#000000" stroke-width="2" stroke-linecap="round" stroke-linejoin="round" stroke-miterlimit="10" points="
		726.811,97.468 732.298,97.468 732.298,109.222 726.811,109.222 726.811,97.468 	"/>

		<path fill="#FFFFFF" stroke="#000000" stroke-width="2" stroke-linecap="round" stroke-linejoin="round" stroke-miterlimit="10" d="
		M709.572,117.06c-1.198-0.781-3.521,1.281-7.053,6.269c-3.692,5.335-3.692,8.947,0,10.973c3.532,2.101,5.854,2.876,7.053,2.35
		c0.867-0.507,1.384-3.604,1.565-9.403C710.956,121.695,710.439,118.341,709.572,117.06L709.572,117.06z"/>
</g>
</svg>
