<svg width="348" height="132" viewBox="0 0 348 132" fill="none" xmlns="http://www.w3.org/2000/svg">
<path d="M72.7418 74.2569C75.3942 74.3784 82.7184 71.1605 82.5708 70.8503C82.2645 70.2112 80.7067 68.8563 78.6968 69.2413C80.0547 68.4957 80.7309 67.6324 81.4968 67.4081C82.2626 67.1839 84.4612 67.0998 84.4332 66.4065C84.4033 65.715 81.7845 64.1341 79.1525 65.7375C76.5225 67.3427 70.7767 69.8598 70.7767 69.8598L72.7418 74.2569Z" fill="#C04220"/>
<path d="M48.0924 60.0754C50.8327 61.8918 56.4645 70.2841 60.8019 71.8314C62.0964 72.2855 73.9316 68.5014 73.9316 68.5014L74.5032 76.1537C74.5032 76.1537 62.3485 80.1733 59.9613 79.6183C57.5741 79.0633 40.8131 71.2259 40.8131 71.2259L48.0924 60.0754" fill="#BEB5B4"/>
<path d="M98.1008 17.766L99.9146 17.3213L107.851 49.8685L106.038 50.3096L98.1008 17.766Z" fill="#211E1E"/>
<path d="M177.268 60.184C177.268 60.184 173.089 43.5562 171.313 35.347C171.214 34.8854 190.052 35.3657 204.381 38.9648C212.276 40.9494 216.365 44.5018 220.725 47.1834C238.986 58.4069 239.188 60.0382 239.188 60.0382L177.268 60.184ZM110.96 60.1018C110.96 60.1018 123.215 43.005 127.059 40.5569C135.545 35.1545 164.568 35.6198 164.568 35.6198L169.583 60.184L110.96 60.1018ZM307.347 67.7093C297.968 64.0597 253.167 57.8724 253.167 57.8724L210.745 32.0207C171.152 20.0348 127.906 29.2905 120.871 32.6804C117.456 34.3267 101.684 50.9993 93.87 57.2539C93.87 57.2539 79.3599 59.4701 77.632 71.8802C76.8307 77.6489 76.0686 89.7226 73.9877 99.2661C70.8608 113.599 83.3647 113.339 83.3647 113.339C83.3647 113.339 85.709 113.364 89.9268 113.41C89.725 112.113 89.6167 110.785 89.6167 109.428C89.6167 95.396 100.987 84.0212 115.013 84.0212C129.038 84.0212 140.406 95.396 140.406 109.428C140.406 110.96 140.266 112.461 140.004 113.922C174.987 113.793 201.375 113.935 238.54 114.184C238.149 112.418 238.147 111.312 238.147 109.428C238.147 95.396 249.517 84.0212 263.546 84.0212C277.568 84.0212 288.942 95.396 288.942 109.428C288.942 111.396 288.71 113.309 288.286 115.146C302.3 115.161 308.275 115.096 309.519 114.903C316.29 113.861 319.546 107.995 320.589 102.783C322.195 84.4902 307.347 67.7093 307.347 67.7093" fill="#BEB5B4"/>
<path d="M93.4142 110.755C93.4142 99.094 102.858 89.6458 114.512 89.6458C126.167 89.6458 135.611 99.094 135.611 110.755C135.611 122.412 126.167 131.86 114.512 131.86C102.858 131.86 93.4142 122.412 93.4142 110.755Z" fill="#211E1E"/>
<path d="M101.945 110.755C101.956 117.695 107.575 123.31 114.512 123.323C121.452 123.31 127.065 117.695 127.078 110.755C127.065 103.812 121.452 98.195 114.512 98.18C107.575 98.195 101.956 103.812 101.945 110.755ZM99.7259 110.755C99.7296 102.583 106.346 95.9637 114.512 95.9637C122.675 95.9637 129.297 102.583 129.297 110.755C129.297 118.921 122.675 125.543 114.512 125.543C106.346 125.543 99.7296 118.921 99.7259 110.755Z" fill="#BEB5B4"/>
<path d="M127.696 113.687C122.33 113.369 118.342 112.175 118.342 110.755C118.342 109.329 122.332 108.137 127.696 107.819C127.353 106.283 126.746 104.825 125.905 103.501C121.887 107.07 118.224 109.051 117.219 108.043C116.214 107.038 118.194 103.374 121.764 99.3521C120.906 98.8083 119.98 98.3523 118.982 97.9991C118.472 97.8235 117.961 97.6796 117.447 97.5637C117.129 102.934 115.936 106.922 114.512 106.922C113.091 106.922 111.897 102.934 111.58 97.5618C110.044 97.9075 108.586 98.5149 107.263 99.3539C110.833 103.375 112.811 107.038 111.804 108.043C110.799 109.051 107.134 107.07 103.116 103.501C102.575 104.356 102.115 105.283 101.766 106.279C101.588 106.791 101.444 107.303 101.329 107.819C106.697 108.137 110.685 109.329 110.685 110.755C110.685 112.175 106.697 113.369 101.327 113.687C101.672 115.223 102.279 116.682 103.118 118.005C107.138 114.434 110.799 112.455 111.804 113.461C112.811 114.466 110.833 118.133 107.263 122.154C108.119 122.698 109.045 123.156 110.043 123.505C110.551 123.684 111.064 123.828 111.58 123.942C111.897 118.572 113.091 114.584 114.512 114.584C115.936 114.584 117.129 118.575 117.447 123.942C118.981 123.6 120.438 122.991 121.76 122.152C118.194 118.131 116.214 114.466 117.219 113.461C118.224 112.455 121.889 114.438 125.909 118.007C126.45 117.152 126.906 116.223 127.261 115.225C127.437 114.717 127.581 114.203 127.696 113.687" fill="#BEB5B4"/>
<path d="M242.475 110.755C242.475 99.094 251.92 89.6458 263.572 89.6458C275.224 89.6458 284.674 99.094 284.674 110.755C284.674 122.412 275.224 131.86 263.572 131.86C251.92 131.86 242.475 122.412 242.475 110.755Z" fill="#211E1E"/>
<path d="M251.004 110.755C251.015 117.695 256.632 123.31 263.572 123.323C270.513 123.31 276.122 117.695 276.135 110.755C276.122 103.81 270.513 98.195 263.572 98.18C256.632 98.195 251.015 103.81 251.004 110.755ZM248.789 110.755C248.789 102.586 255.405 95.9618 263.572 95.9618C271.736 95.9618 278.353 102.586 278.353 110.755C278.353 118.921 271.736 125.54 263.572 125.543C255.405 125.54 248.789 118.921 248.789 110.755Z" fill="#BEB5B4"/>
<path d="M276.754 113.687C271.389 113.369 267.403 112.175 267.403 110.755C267.403 109.329 271.389 108.137 276.756 107.819C276.414 106.283 275.805 104.825 274.966 103.501C270.948 107.07 267.285 109.051 266.278 108.043C265.272 107.038 267.253 103.374 270.821 99.3521C269.968 98.8083 269.039 98.3523 268.04 97.9991C267.534 97.8235 267.02 97.6796 266.506 97.5637C266.187 102.934 264.997 106.922 263.572 106.922C262.148 106.922 260.955 102.934 260.639 97.5618C259.105 97.9075 257.643 98.5149 256.324 99.3539C259.888 103.375 261.872 107.038 260.865 108.043C259.858 109.051 256.195 107.07 252.177 103.501C251.634 104.356 251.174 105.283 250.825 106.279C250.649 106.791 250.507 107.303 250.39 107.819C255.754 108.137 259.744 109.329 259.744 110.755C259.744 112.175 255.754 113.369 250.386 113.687C250.73 115.223 251.339 116.682 252.177 118.005C256.197 114.434 259.862 112.455 260.865 113.461C261.872 114.466 259.888 118.133 256.32 122.154C257.176 122.698 258.102 123.156 259.102 123.505C259.614 123.684 260.124 123.828 260.639 123.942C260.955 118.572 262.148 114.584 263.572 114.584C264.997 114.584 266.187 118.575 266.506 123.942C268.04 123.6 269.501 122.991 270.821 122.152C267.253 118.131 265.272 114.466 266.278 113.461C267.285 112.455 270.948 114.438 274.966 118.007C275.508 117.152 275.969 116.223 276.318 115.225C276.496 114.717 276.64 114.203 276.754 113.687" fill="#BEB5B4"/>
<path d="M82.4363 63.086C84.9767 63.2822 84.1193 63.1439 87.1249 63.2822L92.4541 63.4728C95.4596 63.6111 95.7528 64.8912 93.1041 66.3207L79.7503 73.3956C77.1015 74.8252 77.0642 74.5187 77.4695 71.9959L78.4763 67.2233C78.919 64.8463 80.0585 62.9028 82.4363 63.086" fill="#DAD9D8"/>
<path d="M93.1527 96.4946H74.5873C74.3986 97.371 74.2006 98.2829 73.9877 99.2659C72.7006 105.165 74.0624 108.589 76.1078 110.577H89.6615C89.6428 110.194 89.6167 109.817 89.6167 109.428C89.6167 104.704 90.9093 100.284 93.1527 96.4946" fill="#DAD9D8"/>
<path d="M241.685 96.4946H136.87C139.113 100.284 140.406 104.704 140.406 109.428C140.406 109.817 140.37 110.194 140.357 110.577H238.151C238.147 110.22 238.147 109.845 238.147 109.428C238.147 104.704 239.438 100.284 241.685 96.4946Z" fill="#DAD9D8"/>
<path d="M320.381 96.4946H285.402C287.649 100.284 288.942 104.704 288.942 109.428C288.942 109.815 288.923 110.196 288.905 110.577H317.054C318.934 108.301 320.054 105.457 320.589 102.783C320.835 100.565 320.731 98.4642 320.381 96.4946Z" fill="#DAD9D8"/>
<path d="M194.066 67.5615C194.066 68.3613 193.418 69.0098 192.62 69.0098H181.05C180.251 69.0098 179.604 68.3613 179.604 67.5615C179.604 66.7636 180.251 66.117 181.05 66.117H192.62C193.418 66.117 194.066 66.7636 194.066 67.5615Z" fill="#DAD9D8"/>
<path d="M245.161 60.6156C245.161 64.4501 241.711 67.5615 237.449 67.5615C235.331 67.5615 235.136 64.4501 235.136 60.6156C235.136 56.781 235.331 53.6733 237.449 53.6733C241.711 53.6733 245.161 56.781 245.161 60.6156Z" fill="#DAD9D8"/>
<path d="M312.939 76.6753C312.939 76.6753 301.448 76.1334 297.03 74.9393C291.68 73.4929 288.208 71.1776 291.97 70.0227C295.732 68.8641 307.588 70.6001 307.588 70.6001L312.939 76.6753" fill="#DAD9D8"/>
<path d="M299.828 64.0426L253.167 57.1003C250.272 60.5743 253.937 63.6558 253.937 63.6558L306.962 67.709L299.828 64.0426" fill="#211E1E"/>
<path d="M249.209 56.424L287.102 0.579558C287.102 0.579558 293.462 -1.73761 292.306 2.89304C291.152 7.5237 252.973 65.9712 252.973 65.9712L249.209 56.424Z" fill="#BEB5B4"/>
<path d="M121.805 33.2372C112.902 20.0853 96.1788 5.11321 71.847 8.17602C71.3203 9.73826 74.4136 13.0365 75.8612 13.1953C77.6208 13.3916 85.2495 13.8774 92.4672 16.2955C102.948 19.805 109.635 28.6888 114.41 40.2822C117.311 38.3743 121.805 33.2372 121.805 33.2372" fill="#BEB5B4"/>
<path d="M339.079 114.064C338.418 115.922 338.898 117.919 339.158 120.427C339.412 122.937 340 124.826 337.48 125.4C334.964 125.968 325.593 126.026 325.593 126.026C325.593 126.026 320.577 124.895 325.804 122.636C329.859 120.881 332.868 118.68 332.517 113.919C332.448 112.984 339.079 114.064 339.079 114.064" fill="#100F0D"/>
<path d="M326.523 53.886C326.741 63.1361 327.532 88.9523 327.7 90.2809C329.196 102.693 330.675 119.814 330.675 119.814L338.308 119.629C338.308 119.629 341.3 98.2192 338.543 89.3223C337.703 86.6145 341.704 60.1256 341.704 60.1256L326.523 53.886" fill="#4053AD"/>
<path d="M346.491 118.893C346.727 120.982 347.864 123.794 347.199 126.661C346.968 127.653 345.15 128.074 343.671 128.427C343.058 128.575 340.929 130.015 339.838 130.423C335.865 131.905 333.959 130.813 333.218 130.372C332.469 129.922 332.241 128.819 334.015 127.139C335.532 125.699 337.706 124.91 338.304 123.555C338.894 122.204 338.586 117.973 338.586 117.973L346.491 118.893" fill="#211E1E"/>
<path d="M327.296 52.2885C327.498 61.5386 329.263 72.0669 332.928 90.9875C334.155 97.2608 337.736 124.338 337.736 124.338L347.621 124.607C347.621 124.607 348.714 106.763 345.52 91.1389C345.167 89.4066 345.923 74.1524 346.814 62.2282C347.352 55.1645 342.914 47.4616 342.914 47.4616L327.296 52.2885" fill="#5A80C9"/>
<mask id="mask0_409_1919" style="mask-type:luminance" maskUnits="userSpaceOnUse" x="326" y="66" width="2" height="24">
<path d="M327.599 89.3057C327.599 89.3057 326.912 74.2327 326.855 66.0552C327.126 75.281 327.47 85.8486 327.634 89.2309L327.599 89.3057Z" fill="white"/>
</mask>
<g mask="url(#mask0_409_1919)">
<path d="M327.599 89.3057C327.599 89.3057 326.912 74.2327 326.855 66.0552C327.126 75.281 327.47 85.8486 327.634 89.2309L327.599 89.3057Z" fill="url(#paint0_linear_409_1919)"/>
</g>
<mask id="mask1_409_1919" style="mask-type:luminance" maskUnits="userSpaceOnUse" x="326" y="60" width="6" height="30">
<path d="M327.634 89.231C327.47 85.8486 327.126 75.2811 326.855 66.0553C326.839 63.6035 326.878 61.7722 327.011 61.1518C327.078 60.8453 327.358 60.5014 327.803 60.1352C328.393 65.9468 329.497 72.7471 331.17 81.7543L327.634 89.231" fill="white"/>
</mask>
<g mask="url(#mask1_409_1919)">
<path d="M327.634 89.231C327.47 85.8486 327.126 75.2811 326.855 66.0553C326.839 63.6035 326.878 61.7722 327.011 61.1518C327.078 60.8453 327.358 60.5014 327.803 60.1352C328.393 65.9468 329.497 72.7471 331.17 81.7543L327.634 89.231" fill="url(#paint1_linear_409_1919)"/>
</g>
<mask id="mask2_409_1919" style="mask-type:luminance" maskUnits="userSpaceOnUse" x="327" y="52" width="18" height="30">
<path d="M331.17 81.7544C329.497 72.7472 328.393 65.947 327.802 60.1353C331.277 57.2687 344.797 52.9445 344.797 52.9445L331.17 81.7544Z" fill="white"/>
</mask>
<g mask="url(#mask2_409_1919)">
<path d="M331.17 81.7544C329.497 72.7472 328.393 65.947 327.802 60.1353C331.277 57.2687 344.797 52.9445 344.797 52.9445L331.17 81.7544Z" fill="url(#paint2_linear_409_1919)"/>
</g>
<path d="M276.739 57.3396C277.365 57.8722 280.486 56.8463 282.617 56.1362C283.501 55.8335 290.502 56.4053 290.84 56.2371C291.385 55.9605 288.964 52.7164 288.964 52.7164C288.964 52.7164 285.189 53.0976 282.13 52.7482C280.084 52.5109 278.467 51.4644 278.093 51.5466C277.157 51.7372 273.711 53.2733 273.711 53.2733L276.739 57.3396" fill="#DCA296"/>
<path d="M289.011 50.6981C287.3 50.6476 281.98 52.7387 281.043 52.0977C280.103 51.4605 279.162 51.3129 277.591 51.1671C276.264 51.0363 275.538 48.9714 275.243 49.334C274.947 49.704 274.735 49.7675 275.314 50.7803C275.792 51.6156 276.459 52.236 276.459 52.236C276.459 52.236 280.957 53.5871 281.364 53.6768C281.78 53.7684 289.007 52.7424 289.319 52.8079C289.628 52.8714 289.011 50.6981 289.011 50.6981" fill="#E9C3B5"/>
<path d="M306.093 35.5503C303.702 37.3741 299.748 46.712 295.779 48.1771C292.082 49.5412 282.907 51.9388 282.907 51.9388L286.235 57.4365C286.235 57.4365 290.618 57.2235 293.421 56.7974C296.223 56.3695 299.074 55.5921 301.622 54.2167C303.615 53.1385 312.723 45.744 312.497 43.1372C312.276 40.5341 306.093 35.5503 306.093 35.5503" fill="#5A80C9"/>
<path d="M309.06 30.9012C309.06 30.9012 309.06 30.9012 306.286 30.5461C304.349 30.2994 303.013 29.3969 301.883 28.4961C300.983 25.9715 298.935 23.0171 294.684 19.9673C288.497 15.518 282.044 24.9194 283.346 29.8771C283.284 30.3592 283.067 31.245 283.14 31.4412C283.96 33.6463 286.235 34.7021 288.727 36.496L288.867 36.6026C289.181 37.223 290.274 38.5105 290.584 39.4878L290.778 39.6392C291.206 39.9438 291.901 39.2898 292.637 38.8002L292.825 38.8843C294.424 39.6616 295.758 40.1232 296.724 39.8728L297.107 39.8298C298.368 39.486 298.644 39.2113 299.825 37.8154C301.734 38.5386 306.512 41.0669 306.512 41.0669L307.027 37.0156L306.775 37.0006L309.06 30.9012" fill="#DCA296"/>
<path d="M291.068 17.8464C289.357 17.6689 287.313 17.6801 284.991 20.6046C282.737 23.4376 281.635 25.624 282.083 29.0213C282.298 30.7536 283.951 31.1143 283.951 31.1143C283.951 31.1143 284.44 28.5821 285.169 28.0608C285.895 27.5338 286.017 29.4735 287.999 29.595C289.665 29.6978 291.946 29.8678 291.946 29.8678C291.946 29.8678 295.325 27.8422 296.311 28.5448C297.295 29.2586 301.788 28.2159 301.788 28.2159C301.788 28.2159 301.655 25.0933 298.874 21.6455C294.746 16.5271 291.473 17.8988 291.068 17.8464Z" fill="#2A1412"/>
<path d="M293.565 29.4436C293.636 28.6382 293.363 26.7957 294.391 26.8106C295.418 26.8517 297.464 28.7765 297.131 30.5424C296.804 32.2934 293.565 29.4436 293.565 29.4436" fill="#DCA296"/>
<path d="M279.289 34.7396C277.944 36.3074 278.807 37.5314 280.734 37.5165C282.658 37.4922 282.802 36.5391 283.652 35.1899C284.98 33.082 285.772 31.0564 285.772 31.0564L279.289 34.7396" fill="#5A80C9"/>
<path d="M300.591 23.4076C299.317 23.9551 290.902 25.8463 290.902 25.8463C290.902 25.8463 288.735 31.3141 286.811 32.4484C284.887 33.5827 280.368 32.839 278.719 35.728C280.419 31.9084 281.614 30.5143 281.614 30.5143C281.614 30.5143 279.911 27.0703 282.033 22.378C282.948 20.3561 285.535 17.9155 287.048 17.5044C288.559 17.0895 291.994 15.5423 295.224 17.7062C298.457 19.8702 300.591 23.4076 300.591 23.4076" fill="#4053AD"/>
<path d="M295.265 17.7474C298.5 19.9133 300.63 23.447 300.63 23.447C299.559 23.9085 293.459 25.3157 291.535 25.7529C290.872 22.7555 288.991 18.9789 286.714 17.697L287.087 17.5456C288.598 17.1326 292.034 15.5853 295.265 17.7474Z" fill="#5A80C9"/>
<path d="M301.177 38.4861L300.697 40.6052L304.265 43.584L305.432 39.5289L301.177 38.4861" fill="#5A80C9"/>
<path d="M304.903 30.7367C309.553 30.0453 315.904 29.6173 324.412 34.7226C333.089 39.9326 344.756 44.6567 345.141 53.0472C345.268 55.8072 335.016 62.5009 328.75 62.8878C326.179 63.0429 322.557 59.4269 319.881 56.7136C317.2 53.9965 307.154 49.6742 303.779 41.4743C302.395 38.105 304.903 30.7367 304.903 30.7367" fill="#5A80C9"/>
<path d="M303.831 29.7947C303.824 31.3943 301.948 40.2202 301.948 40.2202L307.063 43.7969L307.629 30.0208L303.831 29.7947" fill="#4053AD"/>
<path d="M271.688 46.2357L272.659 45.6097L285.804 66.0253L284.831 66.6514L271.688 46.2357" fill="#211E1E"/>
<path d="M271.227 43.4943C270.584 43.5896 270.126 44.1389 270.126 44.7649L270.143 44.9574C270.233 45.5928 270.784 46.0525 271.413 46.0525L271.604 46.0413C272.239 45.946 272.7 45.3928 272.7 44.7687L272.689 44.5781H272.687C272.586 43.9371 272.039 43.4793 271.417 43.4793L271.227 43.4943ZM269.635 45.0341L269.611 44.7649C269.611 43.8829 270.251 43.1149 271.148 42.9841L271.417 42.9654C272.295 42.9654 273.059 43.6045 273.197 44.5015L272.941 44.5388L273.197 44.5052L273.216 44.7687C273.212 45.6488 272.571 46.4132 271.68 46.5514L271.413 46.5664C270.53 46.5664 269.758 45.9217 269.635 45.0341" fill="#211E1E"/>
<path d="M273.701 53.0469C273.154 53.7309 273.268 54.5849 274.036 54.5437C273.784 55.1903 274.411 56.2517 275.097 56.0873C274.815 56.6143 275.444 57.2141 276.109 57.1487C276.311 57.6832 276.679 57.8102 277.267 57.629C278.078 57.386 279.627 56.9319 279.625 56.2629C279.625 55.5734 277.421 56.5339 277.421 56.5339C277.421 56.5339 279.021 56.048 279.184 55.3267C279.184 55.3267 279.507 54.6577 278.894 54.7362C278.282 54.811 276.274 55.237 276.274 55.237C276.274 55.237 278.68 54.3214 278.625 54.0448C278.539 53.5421 278.506 53.0974 275.196 54.1252C277.245 53.4038 277.647 53.1328 277.508 52.5629C277.365 51.9911 273.701 53.0469 273.701 53.0469" fill="#E9C3B5"/>
<path d="M319.976 56.7136C322.654 59.4269 326.278 63.0429 328.847 62.8878C330.851 62.7625 335.657 60.8808 338.005 59.7988C338.104 59.2046 337.417 57.3172 337.234 56.8089C334.245 48.5156 314.579 40.1232 310.335 37.8097L304.154 42.0554C307.756 49.8722 317.363 54.0638 319.976 56.7136" fill="#4053AD"/>
<path d="M277.337 64.7735C277.577 64.3624 281.444 63.215 281.651 63.1085C281.82 63.0244 283.211 62.3311 284.287 61.72C283.092 61.449 281.343 60.8697 281.876 60.5633C283.368 60.3502 286.047 60.8156 286.833 60.9613L293.01 61.0043C290.543 64.0466 293.565 63.3645 291.499 64.7941C291.086 65.0818 284.67 66.7076 284.082 66.7898C283.495 66.8758 279.916 67.6681 279.557 67.1206C279.419 66.9113 281.382 66.5843 282.189 66.4628C281.171 66.6086 278.179 67.0122 278.285 66.6086C278.394 66.175 282.049 65.3453 282.049 65.3453C282.049 65.3453 279.466 65.9246 278.497 65.9526C277.34 65.99 277.329 65.62 278.091 65.4425C278.719 65.3023 281.737 64.3736 281.737 64.3736C281.737 64.3736 280.372 64.7081 279.048 64.9847C277.587 65.2837 277.096 65.1809 277.337 64.7735" fill="#E9C3B5"/>
<path d="M313.827 33.5379C313.827 33.5379 315.171 36.4997 314.796 38.9982C313.855 45.2827 310.094 55.1214 307.492 57.4367C302.714 61.6843 296.789 63.6558 292.306 64.8144C289.867 65.446 287.905 60.2043 287.905 60.2043C287.905 60.2043 300.452 51.4438 301.272 50.0572C303.588 46.1516 305.034 35.87 306.286 34.0256C307.767 31.8485 311.2 30.8787 313.827 33.5379" fill="#4053AD"/>
<path d="M48.6734 63.7285C51.1242 61.9047 54.1577 58.7653 54.1577 58.7653L50.3957 53.7347C50.3957 53.7347 42.3692 58.4961 41.5136 59.2436C40.6544 59.9892 48.6734 63.7285 48.6734 63.7285" fill="#DCA296"/>
<path d="M61.1923 44.0979C59.0143 39.4953 47.2818 37.2864 46.1536 44.9593C44.1007 58.9316 52.8184 60.7816 52.8184 60.7816C55.7529 60.7144 56.4907 61.0396 58.6108 60.2061C59.6457 59.8025 60.5385 58.2776 61.1699 56.2762C62.0926 56.0744 63.0714 55.738 62.965 55.0821C62.4905 54.1926 62.1618 53.4507 61.9283 52.806C62.3654 49.6703 62.2122 46.2544 61.1923 44.0979" fill="#E9C3B5"/>
<path d="M54.9123 40.6201C51.0252 39.8334 46.6579 40.4875 45.9967 44.9855C43.9438 58.9596 52.6615 60.8115 52.6615 60.8115C52.9958 60.8059 55.8538 60.7891 56.134 60.7872C50.6086 57.3992 53.4983 46.1459 54.9123 40.6201Z" fill="#DCA296"/>
<path d="M47.1417 40.934C48.184 39.5904 50.7244 38.0264 54.393 38.3814C57.9589 38.7309 59.1245 39.5718 61.239 42.2123C62.3187 43.5615 62.0198 46.2057 62.0198 46.2057C62.0198 46.2057 60.6823 45.8151 59.8063 45.9702C58.9321 46.1253 57.8263 45.5311 56.5486 47.0223C55.4746 48.2725 55.0692 49.8029 55.0692 49.8029C55.0692 49.8029 51.3128 50.8083 51.1354 51.9986C50.9616 53.1797 46.6486 56.1416 46.6486 56.1416C46.6486 56.1416 44.3342 52.0211 43.9326 49.2666C42.993 42.8308 46.8989 41.248 47.1417 40.934" fill="#2A1412"/>
<path d="M53.1005 50.5114C52.5718 49.9135 52.1796 49.0071 51.3838 49.6332C50.5881 50.2554 49.4019 53.6154 50.7039 54.8132C52.0021 56.011 53.1005 50.5114 53.1005 50.5114" fill="#DCA296"/>
<path d="M56.6234 47.0151C57.8973 45.5258 59.0106 46.1219 59.8829 45.9649C60.7534 45.8117 62.0964 46.2004 62.0964 46.2004C62.0964 46.2004 62.3953 43.5562 61.3175 42.2069C59.2011 39.5646 58.4857 38.8582 54.9217 38.5106C53.4834 38.3724 53.39 44.4382 54.4528 49.9658C55.4596 49.5304 55.1421 49.7995 55.1421 49.7995C55.1421 49.7995 55.5493 48.2634 56.6234 47.0151" fill="#61201B"/>
<path d="M0.951432 112.018C1.78266 110.151 11.5109 108.839 23.4189 109.043C34.9011 109.247 44.3977 110.79 45.8734 112.601C46.6317 113.115 47.1529 114.025 47.1716 115.058L47.3098 123.129C47.3341 124.497 46.7625 125.437 45.3205 126.043C42.5709 127.418 33.9504 128.805 23.9308 128.629C13.9093 128.455 5.2813 126.416 2.2347 125.127C1.14943 124.692 0.165038 123.675 0.140755 122.3L0.00066017 114.231C-0.0180192 113.322 0.361165 112.53 0.951432 112.018" fill="#100F0D"/>
<path d="M2.2347 125.127C1.14943 124.691 0.165038 123.675 0.140755 122.299L0.00066017 114.23C-0.0180192 113.322 0.361165 112.53 0.951432 112.018C1.78266 110.151 11.5109 108.839 23.4189 109.043C23.5871 109.046 23.7589 109.052 23.9289 109.056L24.2726 128.634L23.9308 128.629C13.9093 128.455 5.2813 126.416 2.2347 125.127" fill="#211E1E"/>
<path d="M3.61888 112.67C3.64317 114.055 12.5887 115.331 23.6002 115.525C34.6135 115.716 43.5142 114.753 43.4937 113.369C43.4675 111.984 34.522 110.704 23.5124 110.512C12.499 110.323 3.5946 111.285 3.61888 112.67" fill="#100F0D"/>
<path d="M7.6387 112.941C7.65551 113.894 14.7966 114.793 23.5927 114.946C32.3813 115.094 39.4944 114.451 39.4795 113.5C39.4645 112.549 32.3216 111.652 23.5255 111.498C14.7368 111.343 7.62375 111.992 7.6387 112.941Z" fill="#BEB5B4"/>
<path d="M1.35679 98.0009C2.19736 96.134 11.9143 94.8222 23.8336 95.024C35.3158 95.2258 44.8143 96.7731 46.2769 98.5895C47.0502 99.094 47.5545 100.019 47.5882 101.045L47.7226 109.118C47.7394 110.48 47.1679 111.422 45.7389 112.027C42.9818 113.406 34.3576 114.786 24.338 114.617C14.3184 114.432 5.69412 112.397 2.65126 111.119C1.55851 110.682 0.583453 109.656 0.549831 108.277L0.415345 100.221C0.398533 99.3127 0.768392 98.5222 1.35679 98.0009" fill="#100F0D"/>
<path d="M2.65126 111.119C1.55851 110.682 0.583453 109.656 0.549831 108.277L0.415345 100.221C0.398533 99.3125 0.768392 98.522 1.35679 98.0007C2.19736 96.1338 11.9143 94.822 23.8336 95.0238C24.0017 95.0238 24.1698 95.0406 24.338 95.0406L24.691 114.617H24.338C14.3184 114.432 5.69412 112.397 2.65126 111.119" fill="#211E1E"/>
<path d="M4.02978 98.6529C4.05406 100.039 12.9996 101.314 24.0092 101.51C35.0226 101.701 43.9251 100.737 43.9046 99.3518C43.8784 97.9689 34.9347 96.6889 23.9233 96.4964C12.9099 96.3077 4.00363 97.2701 4.02978 98.6529" fill="#100F0D"/>
<path d="M8.04775 98.924C8.06456 99.8789 15.2057 100.778 24.0018 100.929C32.7923 101.079 39.9072 100.436 39.8904 99.4846C39.8736 98.5334 32.7325 97.6365 23.9345 97.4832C15.1478 97.3281 8.03467 97.9747 8.04775 98.924Z" fill="#BEB5B4"/>
<path d="M45.2925 120.016C44.9506 123.247 44.9656 127.334 47.2874 127.158C49.6055 126.986 50.3658 125.465 53.601 125.811C56.8326 126.149 66.2451 127.192 66.0714 124.875C65.8976 122.552 64.4014 121.726 62.7147 121.629C58.6389 121.393 54.9105 115.361 53.4404 115.899C51.4529 116.632 45.2925 120.016 45.2925 120.016Z" fill="#100F0D"/>
<path d="M38.8238 121.842C38.0038 124.987 36.9316 128.773 39.2535 128.945C41.5716 129.118 41.9582 128.625 45.1038 129.446C48.2513 130.262 55.9621 131.025 56.6346 129.479C57.5629 127.341 55.4522 126.115 53.7972 125.768C49.8035 124.929 46.8055 119.265 45.2719 119.579C43.1985 120.007 38.8238 121.842 38.8238 121.842" fill="#211E1E"/>
<path d="M38.7659 86.6855C48.1056 89.255 60.6207 90.6453 63.361 94.0052C65.7725 96.9653 65.072 99.6113 62.894 107.086C61.0373 113.451 60.5591 114.718 59.9371 119.7C59.5691 122.634 47.4667 121.404 46.4693 120.423C42.2888 116.321 51.2755 102.618 53.3937 99.1535C54.8245 96.8139 37.2566 97.1297 34.7144 98.3687L38.7659 86.6855" fill="#4053AD"/>
<path d="M44.7134 56.7788C41.6537 57.9897 27.5658 61.9252 25.1281 90.6846C25.1281 90.6846 44.6293 79.6686 47.1679 79.2145C47.5041 75.5481 50.3957 74.623 49.0171 65.0366C48.3783 60.5461 44.7134 56.7788 44.7134 56.7788" fill="#DAD9D8"/>
<path d="M30.0034 75.4639C30.1211 72.4702 35.5512 63.9265 39.1152 61.2188C44.5789 57.0814 48.7481 61.7233 49.3533 66.9875C50.2107 74.4212 48.7986 77.2298 48.7986 77.2298L47.4705 78.0371C47.4705 78.0371 51.7406 65.7429 45.9743 61.841C44.0241 60.5292 37.3332 60.2096 32.6596 73.7316C31.2979 77.6671 30.0034 75.4639 30.0034 75.4639Z" fill="#5A80C9"/>
<path d="M31.5333 66.3655C30.5246 68.3669 20.4377 88.7844 20.4377 94.0485C20.4377 99.3127 25.3298 101.735 31.6005 101.482C37.8711 101.23 47.4032 100.927 47.4032 100.927C47.4032 100.927 42.343 109.74 38.2914 117.981C36.5935 121.446 38.4596 123.43 38.4596 123.43L51.2194 123.279C51.2194 123.279 55.3382 116.114 59.5411 103.03C61.6425 96.5376 60.6674 93.1572 54.6489 91.8285C48.4455 90.4494 41.5697 88.7844 41.5697 88.7844L48.849 76.9947C48.849 76.9947 37.0642 79.7529 36.0723 69.4769L33.8028 67.9633L31.5333 66.3655" fill="#5A80C9"/>
<path d="M48.849 76.9946C48.849 76.9946 40.4264 78.9456 37.2323 73.3114C33.248 80.1901 32.8781 87.7079 34.0886 88.3134C35.1141 88.8348 39.9557 89.3393 43.7551 89.1712C42.1244 88.4648 43.3348 87.2034 43.3348 87.2034L48.849 76.9946Z" fill="#4053AD"/>
<mask id="mask3_409_1919" style="mask-type:luminance" maskUnits="userSpaceOnUse" x="20" y="75" width="31" height="20">
<path d="M20.4658 94.7212C20.4359 94.695 20.4154 94.6614 20.4041 94.6203C20.3313 94.3512 20.3705 93.8821 20.4957 93.2636C20.4583 93.5532 20.4378 93.8167 20.4378 94.0484C20.4378 94.2783 20.4471 94.5026 20.4658 94.7212M47.6442 77.1927C47.7432 76.9199 47.8516 76.6508 47.9636 76.378C47.8833 76.6826 47.8067 76.9516 47.7395 77.1796C47.7077 77.1834 47.676 77.189 47.6442 77.1927ZM48.9518 76.8396C49.0657 76.5069 49.2226 75.9556 49.3571 75.1521C49.755 75.3334 50.1566 75.5127 50.5563 75.694C50.2033 75.9482 49.6541 76.3387 48.9518 76.8396" fill="white"/>
</mask>
<g mask="url(#mask3_409_1919)">
<path d="M20.4658 94.7212C20.4359 94.695 20.4154 94.6614 20.4041 94.6203C20.3313 94.3512 20.3705 93.8821 20.4957 93.2636C20.4583 93.5532 20.4378 93.8167 20.4378 94.0484C20.4378 94.2783 20.4471 94.5026 20.4658 94.7212M47.6442 77.1927C47.7432 76.9199 47.8516 76.6508 47.9636 76.378C47.8833 76.6826 47.8067 76.9516 47.7395 77.1796C47.7077 77.1834 47.676 77.189 47.6442 77.1927ZM48.9518 76.8396C49.0657 76.5069 49.2226 75.9556 49.3571 75.1521C49.755 75.3334 50.1566 75.5127 50.5563 75.694C50.2033 75.9482 49.6541 76.3387 48.9518 76.8396" fill="url(#paint3_linear_409_1919)"/>
</g>
<mask id="mask4_409_1919" style="mask-type:luminance" maskUnits="userSpaceOnUse" x="49" y="73" width="3" height="3">
<path d="M50.5563 75.6938C50.1565 75.5126 49.7549 75.3332 49.3571 75.1519C49.4262 74.7334 49.4915 74.2456 49.5382 73.6831L51.0177 75.3631C51.0177 75.3631 50.8551 75.4789 50.5563 75.6938" fill="white"/>
</mask>
<g mask="url(#mask4_409_1919)">
<path d="M50.5563 75.6938C50.1565 75.5126 49.7549 75.3332 49.3571 75.1519C49.4262 74.7334 49.4915 74.2456 49.5382 73.6831L51.0177 75.3631C51.0177 75.3631 50.8551 75.4789 50.5563 75.6938" fill="url(#paint4_linear_409_1919)"/>
</g>
<mask id="mask5_409_1919" style="mask-type:luminance" maskUnits="userSpaceOnUse" x="34" y="62" width="15" height="16">
<path d="M45.5539 77.3218C42.8324 77.3218 39.1189 76.6397 37.2323 73.3115C37.2248 73.3228 37.2192 73.3359 37.2117 73.3471C36.6327 72.3268 36.2255 71.056 36.0723 69.477L34.8208 68.6435C35.4634 67.4214 36.119 66.3899 36.7784 65.519L39.3263 62.901C39.4738 62.7889 39.6214 62.6842 39.7652 62.5852L48.7182 72.7509C48.509 74.1655 48.2139 75.4363 47.9636 76.3781C47.8515 76.6509 47.7431 76.92 47.6441 77.1928C47.0838 77.2601 46.3628 77.3218 45.5539 77.3218" fill="white"/>
</mask>
<g mask="url(#mask5_409_1919)">
<path d="M45.5539 77.3218C42.8324 77.3218 39.1189 76.6397 37.2323 73.3115C37.2248 73.3228 37.2192 73.3359 37.2117 73.3471C36.6327 72.3268 36.2255 71.056 36.0723 69.477L34.8208 68.6435C35.4634 67.4214 36.119 66.3899 36.7784 65.519L39.3263 62.901C39.4738 62.7889 39.6214 62.6842 39.7652 62.5852L48.7182 72.7509C48.509 74.1655 48.2139 75.4363 47.9636 76.3781C47.8515 76.6509 47.7431 76.92 47.6441 77.1928C47.0838 77.2601 46.3628 77.3218 45.5539 77.3218" fill="url(#paint5_linear_409_1919)"/>
</g>
<mask id="mask6_409_1919" style="mask-type:luminance" maskUnits="userSpaceOnUse" x="34" y="62" width="16" height="16">
<path d="M47.7394 77.1797C47.8067 76.9517 47.8833 76.6826 47.9636 76.3781C48.2139 75.4362 48.509 74.1655 48.7182 72.7509L49.5382 73.6833C49.4915 74.2458 49.4262 74.7336 49.3571 75.1522C49.2226 75.9557 49.0657 76.507 48.9517 76.8396C48.8639 76.9013 48.7761 76.963 48.6846 77.0284C48.5015 77.0657 48.1746 77.1236 47.7394 77.1797M34.8208 68.6434L34.1652 68.2062L36.7784 65.519C36.119 66.3898 35.4634 67.4213 34.8208 68.6434M39.3263 62.9009L39.7036 62.5141L39.7652 62.5851C39.6214 62.6842 39.4738 62.7888 39.3263 62.9009Z" fill="white"/>
</mask>
<g mask="url(#mask6_409_1919)">
<path d="M47.7394 77.1797C47.8067 76.9517 47.8833 76.6826 47.9636 76.3781C48.2139 75.4362 48.509 74.1655 48.7182 72.7509L49.5382 73.6833C49.4915 74.2458 49.4262 74.7336 49.3571 75.1522C49.2226 75.9557 49.0657 76.507 48.9517 76.8396C48.8639 76.9013 48.7761 76.963 48.6846 77.0284C48.5015 77.0657 48.1746 77.1236 47.7394 77.1797M34.8208 68.6434L34.1652 68.2062L36.7784 65.519C36.119 66.3898 35.4634 67.4213 34.8208 68.6434M39.3263 62.9009L39.7036 62.5141L39.7652 62.5851C39.6214 62.6842 39.4738 62.7888 39.3263 62.9009Z" fill="url(#paint6_linear_409_1919)"/>
</g>
<mask id="mask7_409_1919" style="mask-type:luminance" maskUnits="userSpaceOnUse" x="20" y="68" width="18" height="27">
<path d="M20.7235 94.7979C20.6077 94.7979 20.5199 94.7717 20.4657 94.7213C20.4471 94.5026 20.4377 94.2783 20.4377 94.0485C20.4377 93.8168 20.4583 93.5533 20.4956 93.2637C21.4464 88.5526 27.3976 75.1615 27.3976 75.1615L34.1652 68.2062L34.8208 68.6434L36.0723 69.4769C36.2255 71.0559 36.6327 72.3267 37.2118 73.347C33.9298 79.0335 33.1135 85.146 33.6141 87.4258C27.6442 91.3875 22.1077 94.7979 20.7235 94.7979" fill="white"/>
</mask>
<g mask="url(#mask7_409_1919)">
<path d="M20.7235 94.7979C20.6077 94.7979 20.5199 94.7717 20.4657 94.7213C20.4471 94.5026 20.4377 94.2783 20.4377 94.0485C20.4377 93.8168 20.4583 93.5533 20.4956 93.2637C21.4464 88.5526 27.3976 75.1615 27.3976 75.1615L34.1652 68.2062L34.8208 68.6434L36.0723 69.4769C36.2255 71.0559 36.6327 72.3267 37.2118 73.347C33.9298 79.0335 33.1135 85.146 33.6141 87.4258C27.6442 91.3875 22.1077 94.7979 20.7235 94.7979" fill="url(#paint7_linear_409_1919)"/>
</g>
<mask id="mask8_409_1919" style="mask-type:luminance" maskUnits="userSpaceOnUse" x="33" y="73" width="16" height="15">
<path d="M33.6141 87.4258C33.1135 85.146 33.9298 79.0335 37.2118 73.347C37.2192 73.3358 37.2249 73.3226 37.2323 73.3114C39.1189 76.6396 42.8324 77.3217 45.554 77.3217C46.3628 77.3217 47.0838 77.26 47.6442 77.1927C47.6759 77.189 47.7077 77.1834 47.7394 77.1796C48.1747 77.1236 48.5016 77.0657 48.6846 77.0283C45.4438 79.3324 39.3319 83.6323 33.6141 87.4258" fill="white"/>
</mask>
<g mask="url(#mask8_409_1919)">
<path d="M33.6141 87.4258C33.1135 85.146 33.9298 79.0335 37.2118 73.347C37.2192 73.3358 37.2249 73.3226 37.2323 73.3114C39.1189 76.6396 42.8324 77.3217 45.554 77.3217C46.3628 77.3217 47.0838 77.26 47.6442 77.1927C47.6759 77.189 47.7077 77.1834 47.7394 77.1796C48.1747 77.1236 48.5016 77.0657 48.6846 77.0283C45.4438 79.3324 39.3319 83.6323 33.6141 87.4258" fill="url(#paint8_linear_409_1919)"/>
</g>
<path d="M75.9938 73.6608C76.9147 72.9096 80.6431 68.5742 81.3305 68.6882C82.0216 68.7947 81.6667 69.6487 81.2315 70.6186C80.7962 71.5866 81.1736 71.2988 81.1736 71.2988C81.1736 71.2988 83.0415 70.8896 85.9667 71.0577C87.4498 71.1437 88.4959 72.3509 86.1385 72.5228C87.3247 72.7713 88.2923 73.801 86.5028 74.2532C87.5208 74.5522 87.8645 75.4791 86.3645 75.879C86.9772 75.978 87.2331 76.604 86.4822 77.1796C86.0152 77.5384 84.3808 78.7512 81.3211 78.7381C78.2596 78.7269 76.1189 78.8633 76.1189 78.8633L75.9938 73.6608" fill="#E1561D"/>
<path d="M81.3212 78.7381C84.3808 78.7512 86.0153 77.5384 86.4823 77.1796C87.2332 76.604 86.9773 75.978 86.3646 75.879C87.532 75.5669 87.5769 74.9427 87.0613 74.5335C83.8765 75.8902 79.3598 76.2939 76.0499 75.9631L76.119 78.8633C76.119 78.8633 78.2596 78.7269 81.3212 78.7381" fill="#C04220"/>
<path d="M37.832 65.5467C37.6769 69.2841 39.6999 71.62 39.6999 71.62C42.9146 74.4642 51.4455 78.5772 56.3208 80.4254C61.1942 82.2679 77.8375 80.0386 77.8375 80.0386L75.9901 73.229C75.9901 73.229 61.254 71.3678 57.2286 69.2617C53.2013 67.1557 49.3366 62.7418 46.8223 61.6916C42.1562 59.7407 37.9534 62.6185 37.832 65.5467" fill="#DAD9D8"/>
<defs>
<linearGradient id="paint0_linear_409_1919" x1="329.803" y1="103.717" x2="339.926" y2="26.3492" gradientUnits="userSpaceOnUse">
<stop stop-color="white"/>
<stop offset="0.120879" stop-color="white"/>
<stop offset="0.82967" stop-color="#5C5E5F"/>
<stop offset="1" stop-color="#5C5E5F"/>
</linearGradient>
<linearGradient id="paint1_linear_409_1919" x1="329.803" y1="103.717" x2="339.926" y2="26.349" gradientUnits="userSpaceOnUse">
<stop stop-color="#4053AD"/>
<stop offset="0.120879" stop-color="#4053AD"/>
<stop offset="0.82967" stop-color="#1A2445"/>
<stop offset="1" stop-color="#1A2445"/>
</linearGradient>
<linearGradient id="paint2_linear_409_1919" x1="329.803" y1="103.717" x2="339.926" y2="26.3492" gradientUnits="userSpaceOnUse">
<stop stop-color="#5A80C9"/>
<stop offset="0.120879" stop-color="#5A80C9"/>
<stop offset="0.82967" stop-color="#213252"/>
<stop offset="1" stop-color="#213252"/>
</linearGradient>
<linearGradient id="paint3_linear_409_1919" x1="23.2042" y1="90.468" x2="61.1082" y2="53.666" gradientUnits="userSpaceOnUse">
<stop stop-color="white"/>
<stop offset="0.120879" stop-color="white"/>
<stop offset="0.615385" stop-color="#5C5E5F"/>
<stop offset="1" stop-color="#5C5E5F"/>
</linearGradient>
<linearGradient id="paint4_linear_409_1919" x1="23.2041" y1="90.4679" x2="61.1081" y2="53.6658" gradientUnits="userSpaceOnUse">
<stop stop-color="#BEB5B5"/>
<stop offset="0.120879" stop-color="#BEB5B5"/>
<stop offset="0.615385" stop-color="#444142"/>
<stop offset="1" stop-color="#444142"/>
</linearGradient>
<linearGradient id="paint5_linear_409_1919" x1="23.2041" y1="90.4681" x2="61.1081" y2="53.6662" gradientUnits="userSpaceOnUse">
<stop stop-color="#DAD9D8"/>
<stop offset="0.120879" stop-color="#DAD9D8"/>
<stop offset="0.615385" stop-color="#4D4E4F"/>
<stop offset="1" stop-color="#4D4E4F"/>
</linearGradient>
<linearGradient id="paint6_linear_409_1919" x1="23.2041" y1="90.4681" x2="61.1081" y2="53.6661" gradientUnits="userSpaceOnUse">
<stop stop-color="#5A80C9"/>
<stop offset="0.120879" stop-color="#5A80C9"/>
<stop offset="0.615385" stop-color="#213252"/>
<stop offset="1" stop-color="#213252"/>
</linearGradient>
<linearGradient id="paint7_linear_409_1919" x1="23.2042" y1="90.4681" x2="61.1081" y2="53.6661" gradientUnits="userSpaceOnUse">
<stop stop-color="#5A80C9"/>
<stop offset="0.120879" stop-color="#5A80C9"/>
<stop offset="0.615385" stop-color="#213252"/>
<stop offset="1" stop-color="#213252"/>
</linearGradient>
<linearGradient id="paint8_linear_409_1919" x1="23.2041" y1="90.468" x2="61.1082" y2="53.6661" gradientUnits="userSpaceOnUse">
<stop stop-color="#4053AD"/>
<stop offset="0.120879" stop-color="#4053AD"/>
<stop offset="0.615385" stop-color="#1A2445"/>
<stop offset="1" stop-color="#1A2445"/>
</linearGradient>
</defs>
</svg>
